<?xml version="1.0" encoding="UTF-8"?>
<svg xmlns="http://www.w3.org/2000/svg" xmlns:xlink="http://www.w3.org/1999/xlink"
     width="772" height="336" viewBox="0 0 772 336">
<defs>
</defs>
<rect x="0" y="0" width="772" height="336" fill="#2b2b2b" />
<text x="60.0" y="30.0" font-size="24.0" fill="#ffffff" font-family="'Helvetica Neue', Helvetica, Arial, sans-serif" font-weight="bold" class="nf-metro-title">Trunk Through Fan</text>
<rect x="30.0" y="70.0" width="160.0" height="100.0" rx="8" ry="8" fill="#373737" stroke="#595959" stroke-width="1.0" class="nf-metro-section-box" data-section-id="source" data-section-lines="a,b" />
<circle cx="41.0" cy="55.0" r="11" fill="#333333" class="nf-metro-section-num-circle" data-section-id="source" />
<text x="41.0" y="55.0" font-size="12" fill="#ffffff" font-family="'Helvetica Neue', Helvetica, Arial, sans-serif" font-weight="bold" text-anchor="middle" dy="0.3em" data-section-id="source">1</text>
<text x="57.0" y="55.0" font-size="16.0" fill="#aaaaaa" font-family="'Helvetica Neue', Helvetica, Arial, sans-serif" font-weight="bold" dy="0.3em" class="nf-metro-section-label" data-section-id="source">Source</text>
<rect x="240.0" y="70.0" width="292.0" height="140.0" rx="8" ry="8" fill="#373737" stroke="#595959" stroke-width="1.0" class="nf-metro-section-box" data-section-id="middle" data-section-lines="a,b" />
<circle cx="251.0" cy="55.0" r="11" fill="#333333" class="nf-metro-section-num-circle" data-section-id="middle" />
<text x="251.0" y="55.0" font-size="12" fill="#ffffff" font-family="'Helvetica Neue', Helvetica, Arial, sans-serif" font-weight="bold" text-anchor="middle" dy="0.3em" data-section-id="middle">2</text>
<text x="267.0" y="55.0" font-size="16.0" fill="#aaaaaa" font-family="'Helvetica Neue', Helvetica, Arial, sans-serif" font-weight="bold" dy="0.3em" class="nf-metro-section-label" data-section-id="middle">Middle</text>
<rect x="612.0" y="70.0" width="100.0" height="100.0" rx="8" ry="8" fill="#373737" stroke="#595959" stroke-width="1.0" class="nf-metro-section-box" data-section-id="sink" data-section-lines="a,b" />
<circle cx="623.0" cy="55.0" r="11" fill="#333333" class="nf-metro-section-num-circle" data-section-id="sink" />
<text x="623.0" y="55.0" font-size="12" fill="#ffffff" font-family="'Helvetica Neue', Helvetica, Arial, sans-serif" font-weight="bold" text-anchor="middle" dy="0.3em" data-section-id="sink">3</text>
<text x="639.0" y="55.0" font-size="16.0" fill="#aaaaaa" font-family="'Helvetica Neue', Helvetica, Arial, sans-serif" font-weight="bold" dy="0.3em" class="nf-metro-section-label" data-section-id="sink">Sink</text>
<path d="M80.0,123.0 L140.0,123.0" stroke="#0570b0" stroke-width="3.0" stroke-linecap="round" class="metro-line-b" data-line-id="b" />
<path d="M290.0,123.0 L303.25,123.0 Q313.25,123.0,319.25,115.0 L337.25,91.0 Q343.25,83.0,353.25,83.0 L388.25,83.0" stroke="#0570b0" stroke-width="3.0" fill="none" stroke-linecap="round" stroke-linejoin="round" class="metro-line-b" data-line-id="b" />
<path d="M290.0,123.0 L301.75,123.0 Q311.75,123.0,317.75,131.0 L335.75,155.0 Q341.75,163.0,351.75,163.0 L388.25,163.0" stroke="#0570b0" stroke-width="3.0" fill="none" stroke-linecap="round" stroke-linejoin="round" class="metro-line-b" data-line-id="b" />
<path d="M388.25,83.0 L423.25,83.0 Q433.25,83.0,439.25,91.0 L457.25,115.0 Q463.25,123.0,473.25,123.0 L482.0,123.0" stroke="#0570b0" stroke-width="3.0" fill="none" stroke-linecap="round" stroke-linejoin="round" class="metro-line-b" data-line-id="b" />
<path d="M388.25,163.0 L424.75,163.0 Q434.75,163.0,440.75,155.0 L458.75,131.0 Q464.75,123.0,474.75,123.0 L482.0,123.0" stroke="#0570b0" stroke-width="3.0" fill="none" stroke-linecap="round" stroke-linejoin="round" class="metro-line-b" data-line-id="b" />
<path d="M140.0,123.0 L190.0,123.0" stroke="#0570b0" stroke-width="3.0" stroke-linecap="round" class="metro-line-b" data-line-id="b" />
<path d="M240.0,123.0 L290.0,123.0" stroke="#0570b0" stroke-width="3.0" stroke-linecap="round" class="metro-line-b" data-line-id="b" />
<path d="M482.0,123.0 L532.0,123.0" stroke="#0570b0" stroke-width="3.0" stroke-linecap="round" class="metro-line-b" data-line-id="b" />
<path d="M612.0,123.0 L662.0,123.0" stroke="#0570b0" stroke-width="3.0" stroke-linecap="round" class="metro-line-b" data-line-id="b" />
<path d="M190.0,123.0 L240.0,123.0" stroke="#0570b0" stroke-width="3.0" stroke-linecap="round" class="metro-line-b" data-line-id="b" />
<path d="M532.0,123.0 L612.0,123.0" stroke="#0570b0" stroke-width="3.0" stroke-linecap="round" class="metro-line-b" data-line-id="b" />
<path d="M80.0,120.0 L140.0,120.0" stroke="#e63946" stroke-width="3.0" stroke-linecap="round" class="metro-line-a" data-line-id="a" />
<path d="M290.0,120.0 L301.75,120.0 Q311.75,120.0,317.75,112.0 L335.75,88.0 Q341.75,80.0,351.75,80.0 L388.25,80.0" stroke="#e63946" stroke-width="3.0" fill="none" stroke-linecap="round" stroke-linejoin="round" class="metro-line-a" data-line-id="a" />
<path d="M290.0,120.0 L303.25,120.0 Q313.25,120.0,319.25,128.0 L337.25,152.0 Q343.25,160.0,353.25,160.0 L388.25,160.0" stroke="#e63946" stroke-width="3.0" fill="none" stroke-linecap="round" stroke-linejoin="round" class="metro-line-a" data-line-id="a" />
<path d="M388.25,80.0 L424.75,80.0 Q434.75,80.0,440.75,88.0 L458.75,112.0 Q464.75,120.0,474.75,120.0 L482.0,120.0" stroke="#e63946" stroke-width="3.0" fill="none" stroke-linecap="round" stroke-linejoin="round" class="metro-line-a" data-line-id="a" />
<path d="M388.25,160.0 L423.25,160.0 Q433.25,160.0,439.25,152.0 L457.25,128.0 Q463.25,120.0,473.25,120.0 L482.0,120.0" stroke="#e63946" stroke-width="3.0" fill="none" stroke-linecap="round" stroke-linejoin="round" class="metro-line-a" data-line-id="a" />
<path d="M140.0,120.0 L190.0,120.0" stroke="#e63946" stroke-width="3.0" stroke-linecap="round" class="metro-line-a" data-line-id="a" />
<path d="M240.0,120.0 L290.0,120.0" stroke="#e63946" stroke-width="3.0" stroke-linecap="round" class="metro-line-a" data-line-id="a" />
<path d="M482.0,120.0 L532.0,120.0" stroke="#e63946" stroke-width="3.0" stroke-linecap="round" class="metro-line-a" data-line-id="a" />
<path d="M612.0,120.0 L662.0,120.0" stroke="#e63946" stroke-width="3.0" stroke-linecap="round" class="metro-line-a" data-line-id="a" />
<path d="M190.0,120.0 L240.0,120.0" stroke="#e63946" stroke-width="3.0" stroke-linecap="round" class="metro-line-a" data-line-id="a" />
<path d="M532.0,120.0 L612.0,120.0" stroke="#e63946" stroke-width="3.0" stroke-linecap="round" class="metro-line-a" data-line-id="a" />
<rect x="75.0" y="115.0" width="10.0" height="13.0" rx="5.0" ry="5.0" fill="#ffffff" stroke="#333333" stroke-width="1.5" class="nf-metro-station" data-station-id="s1" data-station-lines="a,b" data-station-label="Input" data-section-id="source" data-section-name="Source" />
<rect x="135.0" y="115.0" width="10.0" height="13.0" rx="5.0" ry="5.0" fill="#ffffff" stroke="#333333" stroke-width="1.5" class="nf-metro-station" data-station-id="s2" data-station-lines="a,b" data-station-label="Prepare" data-section-id="source" data-section-name="Source" />
<rect x="285.0" y="115.0" width="10.0" height="13.0" rx="5.0" ry="5.0" fill="#ffffff" stroke="#333333" stroke-width="1.5" class="nf-metro-station" data-station-id="split" data-station-lines="a,b" data-station-label="Split" data-section-id="middle" data-section-name="Middle" />
<rect x="383.25" y="75.0" width="10.0" height="13.0" rx="5.0" ry="5.0" fill="#ffffff" stroke="#333333" stroke-width="1.5" class="nf-metro-station" data-station-id="up" data-station-lines="a,b" data-station-label="Path Up" data-section-id="middle" data-section-name="Middle" />
<rect x="383.25" y="155.0" width="10.0" height="13.0" rx="5.0" ry="5.0" fill="#ffffff" stroke="#333333" stroke-width="1.5" class="nf-metro-station" data-station-id="down" data-station-lines="a,b" data-station-label="Path Down" data-section-id="middle" data-section-name="Middle" />
<rect x="477.0" y="115.0" width="10.0" height="13.0" rx="5.0" ry="5.0" fill="#ffffff" stroke="#333333" stroke-width="1.5" class="nf-metro-station" data-station-id="join" data-station-lines="a,b" data-station-label="Join" data-section-id="middle" data-section-name="Middle" />
<rect x="657.0" y="115.0" width="10.0" height="13.0" rx="5.0" ry="5.0" fill="#ffffff" stroke="#333333" stroke-width="1.5" class="nf-metro-station" data-station-id="report" data-station-lines="a,b" data-station-label="Report" data-section-id="sink" data-section-name="Sink" />
<text x="80.0" y="134.0" font-size="13.0" fill="#e0e0e0" font-family="'Helvetica Neue', Helvetica, Arial, sans-serif" font-weight="bold" text-anchor="middle" dominant-baseline="hanging" data-station-id="s1" class="nf-metro-station-label">Input</text>
<text x="290.0" y="134.0" font-size="13.0" fill="#e0e0e0" font-family="'Helvetica Neue', Helvetica, Arial, sans-serif" font-weight="bold" text-anchor="middle" dominant-baseline="hanging" data-station-id="split" class="nf-metro-station-label">Split</text>
<text x="662.0" y="134.0" font-size="13.0" fill="#e0e0e0" font-family="'Helvetica Neue', Helvetica, Arial, sans-serif" font-weight="bold" text-anchor="middle" dominant-baseline="hanging" data-station-id="report" class="nf-metro-station-label">Report</text>
<text x="140.0" y="106.0" font-size="13.0" fill="#e0e0e0" font-family="'Helvetica Neue', Helvetica, Arial, sans-serif" font-weight="bold" text-anchor="middle" dominant-baseline="auto" data-station-id="s2" class="nf-metro-station-label">Prepare</text>
<text x="388.25" y="94.0" font-size="13.0" fill="#e0e0e0" font-family="'Helvetica Neue', Helvetica, Arial, sans-serif" font-weight="bold" text-anchor="middle" dominant-baseline="hanging" data-station-id="up" class="nf-metro-station-label">Path Up</text>
<text x="388.25" y="174.0" font-size="13.0" fill="#e0e0e0" font-family="'Helvetica Neue', Helvetica, Arial, sans-serif" font-weight="bold" text-anchor="middle" dominant-baseline="hanging" data-station-id="down" class="nf-metro-station-label">Path Down</text>
<text x="482.0" y="134.0" font-size="13.0" fill="#e0e0e0" font-family="'Helvetica Neue', Helvetica, Arial, sans-serif" font-weight="bold" text-anchor="middle" dominant-baseline="hanging" data-station-id="join" class="nf-metro-station-label">Join</text>
<circle cx="311.75" cy="120.0" r="3.0" fill="rgba(255, 200, 50, 0.6)" />
<circle cx="341.75" cy="80.0" r="3.0" fill="rgba(255, 200, 50, 0.6)" />
<circle cx="313.25" cy="123.0" r="3.0" fill="rgba(255, 200, 50, 0.6)" />
<circle cx="343.25" cy="83.0" r="3.0" fill="rgba(255, 200, 50, 0.6)" />
<circle cx="313.25" cy="120.0" r="3.0" fill="rgba(255, 200, 50, 0.6)" />
<circle cx="343.25" cy="160.0" r="3.0" fill="rgba(255, 200, 50, 0.6)" />
<circle cx="311.75" cy="123.0" r="3.0" fill="rgba(255, 200, 50, 0.6)" />
<circle cx="341.75" cy="163.0" r="3.0" fill="rgba(255, 200, 50, 0.6)" />
<circle cx="434.75" cy="80.0" r="3.0" fill="rgba(255, 200, 50, 0.6)" />
<circle cx="464.75" cy="120.0" r="3.0" fill="rgba(255, 200, 50, 0.6)" />
<circle cx="433.25" cy="83.0" r="3.0" fill="rgba(255, 200, 50, 0.6)" />
<circle cx="463.25" cy="123.0" r="3.0" fill="rgba(255, 200, 50, 0.6)" />
<circle cx="433.25" cy="160.0" r="3.0" fill="rgba(255, 200, 50, 0.6)" />
<circle cx="463.25" cy="120.0" r="3.0" fill="rgba(255, 200, 50, 0.6)" />
<circle cx="434.75" cy="163.0" r="3.0" fill="rgba(255, 200, 50, 0.6)" />
<circle cx="464.75" cy="123.0" r="3.0" fill="rgba(255, 200, 50, 0.6)" />
<path d="M190.0,115.0 L195.0,120.0 L190.0,125.0 L185.0,120.0 Z" fill="rgba(80, 180, 255, 0.7)" stroke="none" />
<text x="190.0" y="112.0" font-size="7" fill="rgba(80, 180, 255, 0.7)" font-family="'Helvetica Neue', Helvetica, Arial, sans-serif" text-anchor="middle" dominant-baseline="auto">source__exit_right_0 (right)</text>
<path d="M532.0,115.0 L537.0,120.0 L532.0,125.0 L527.0,120.0 Z" fill="rgba(80, 180, 255, 0.7)" stroke="none" />
<text x="532.0" y="112.0" font-size="7" fill="rgba(80, 180, 255, 0.7)" font-family="'Helvetica Neue', Helvetica, Arial, sans-serif" text-anchor="middle" dominant-baseline="auto">middle__exit_right_1 (right)</text>
<path d="M240.0,115.0 L245.0,120.0 L240.0,125.0 L235.0,120.0 Z" fill="rgba(255, 80, 80, 0.7)" stroke="none" />
<text x="240.0" y="112.0" font-size="7" fill="rgba(255, 80, 80, 0.7)" font-family="'Helvetica Neue', Helvetica, Arial, sans-serif" text-anchor="middle" dominant-baseline="auto">middle__entry_left_2 (left)</text>
<path d="M612.0,115.0 L617.0,120.0 L612.0,125.0 L607.0,120.0 Z" fill="rgba(255, 80, 80, 0.7)" stroke="none" />
<text x="612.0" y="112.0" font-size="7" fill="rgba(255, 80, 80, 0.7)" font-family="'Helvetica Neue', Helvetica, Arial, sans-serif" text-anchor="middle" dominant-baseline="auto">sink__entry_left_3 (left)</text>
<path d="M215.0,50.0 L215.0,230.0" stroke="rgba(255, 255, 0, 0.5)" stroke-width="1" stroke-dasharray="6,4" />
<text x="215.0" y="46.0" font-size="7" fill="rgba(255, 255, 0, 0.5)" font-family="'Helvetica Neue', Helvetica, Arial, sans-serif" text-anchor="middle">col 0|1</text>
<path d="M572.0,50.0 L572.0,230.0" stroke="rgba(255, 255, 0, 0.5)" stroke-width="1" stroke-dasharray="6,4" />
<text x="572.0" y="46.0" font-size="7" fill="rgba(255, 255, 0, 0.5)" font-family="'Helvetica Neue', Helvetica, Arial, sans-serif" text-anchor="middle">col 1|2</text>
<path d="M20.0,80.0 L722.0,80.0" stroke="rgba(80, 255, 180, 0.5)" stroke-width="0.75" stroke-dasharray="4,6" />
<text x="16.0" y="80.0" font-size="7" fill="rgba(80, 255, 180, 0.5)" font-family="'Helvetica Neue', Helvetica, Arial, sans-serif" text-anchor="end">row 0 grid</text>
<path d="M20.0,120.0 L722.0,120.0" stroke="rgba(80, 255, 180, 0.5)" stroke-width="0.75" stroke-dasharray="4,6" />
<path d="M20.0,160.0 L722.0,160.0" stroke="rgba(80, 255, 180, 0.5)" stroke-width="0.75" stroke-dasharray="4,6" />
<rect x="30.0" y="240.0" width="67.7" height="72.0" rx="6" ry="6" fill="rgba(0, 0, 0, 0.3)" />
<path d="M42.0,264.0 L66.0,264.0" stroke="#e63946" stroke-width="3.0" stroke-linecap="round" />
<text x="78.0" y="264.0" font-size="14.0" fill="#e0e0e0" font-family="'Helvetica Neue', Helvetica, Arial, sans-serif" dy="0.3em">A</text>
<path d="M42.0,288.0 L66.0,288.0" stroke="#0570b0" stroke-width="3.0" stroke-linecap="round" />
<text x="78.0" y="288.0" font-size="14.0" fill="#e0e0e0" font-family="'Helvetica Neue', Helvetica, Arial, sans-serif" dy="0.3em">B</text>
<text x="742.0" y="328.0" font-size="8" fill="rgba(150, 150, 150, 0.6)" font-family="'Helvetica Neue', Helvetica, Arial, sans-serif" text-anchor="end">created with nf-metro v0.7.2+dev</text>
</svg>