<?xml version="1.0" encoding="UTF-8"?>
<svg xmlns="http://www.w3.org/2000/svg" xmlns:xlink="http://www.w3.org/1999/xlink"
     width="1785" height="582" viewBox="0 0 1785 582">
<defs>
</defs>
<rect x="0" y="0" width="1785" height="582" fill="#2b2b2b" />
<text x="60.0" y="30.0" font-size="24.0" fill="#ffffff" font-family="'Helvetica Neue', Helvetica, Arial, sans-serif" font-weight="bold" class="nf-metro-title">Variant Calling Pipeline</text>
<rect x="30.0" y="70.0" width="394.0" height="144.0" rx="8" ry="8" fill="#373737" stroke="#595959" stroke-width="1.0" class="nf-metro-section-box" data-section-id="input_qc" data-section-lines="panel,rna_var,wes,wgs" />
<circle cx="41.0" cy="55.0" r="11" fill="#333333" class="nf-metro-section-num-circle" data-section-id="input_qc" />
<text x="41.0" y="55.0" font-size="12" fill="#ffffff" font-family="'Helvetica Neue', Helvetica, Arial, sans-serif" font-weight="bold" text-anchor="middle" dy="0.3em" data-section-id="input_qc">1</text>
<text x="57.0" y="55.0" font-size="16.0" fill="#aaaaaa" font-family="'Helvetica Neue', Helvetica, Arial, sans-serif" font-weight="bold" dy="0.3em" class="nf-metro-section-label" data-section-id="input_qc">Input &amp; QC</text>
<rect x="474.0" y="70.0" width="410.5" height="144.0" rx="8" ry="8" fill="#373737" stroke="#595959" stroke-width="1.0" class="nf-metro-section-box" data-section-id="alignment" data-section-lines="panel,rna_var,wes,wgs" />
<circle cx="485.0" cy="55.0" r="11" fill="#333333" class="nf-metro-section-num-circle" data-section-id="alignment" />
<text x="485.0" y="55.0" font-size="12" fill="#ffffff" font-family="'Helvetica Neue', Helvetica, Arial, sans-serif" font-weight="bold" text-anchor="middle" dy="0.3em" data-section-id="alignment">2</text>
<text x="501.0" y="55.0" font-size="16.0" fill="#aaaaaa" font-family="'Helvetica Neue', Helvetica, Arial, sans-serif" font-weight="bold" dy="0.3em" class="nf-metro-section-label" data-section-id="alignment">Alignment</text>
<rect x="934.5" y="70.0" width="257.0" height="188.0" rx="8" ry="8" fill="#373737" stroke="#595959" stroke-width="1.0" class="nf-metro-section-box" data-section-id="dna_calling" data-section-lines="panel,wes,wgs" />
<circle cx="945.5" cy="55.0" r="11" fill="#333333" class="nf-metro-section-num-circle" data-section-id="dna_calling" />
<text x="945.5" y="55.0" font-size="12" fill="#ffffff" font-family="'Helvetica Neue', Helvetica, Arial, sans-serif" font-weight="bold" text-anchor="middle" dy="0.3em" data-section-id="dna_calling">3</text>
<text x="961.5" y="55.0" font-size="16.0" fill="#aaaaaa" font-family="'Helvetica Neue', Helvetica, Arial, sans-serif" font-weight="bold" dy="0.3em" class="nf-metro-section-label" data-section-id="dna_calling">DNA Variant Calling</text>
<rect x="934.5" y="308.0" width="260.5" height="100.0" rx="8" ry="8" fill="#373737" stroke="#595959" stroke-width="1.0" class="nf-metro-section-box" data-section-id="rna_calling" data-section-lines="rna_var" />
<circle cx="945.5" cy="293.0" r="11" fill="#333333" class="nf-metro-section-num-circle" data-section-id="rna_calling" />
<text x="945.5" y="293.0" font-size="12" fill="#ffffff" font-family="'Helvetica Neue', Helvetica, Arial, sans-serif" font-weight="bold" text-anchor="middle" dy="0.3em" data-section-id="rna_calling">4</text>
<text x="961.5" y="293.0" font-size="16.0" fill="#aaaaaa" font-family="'Helvetica Neue', Helvetica, Arial, sans-serif" font-weight="bold" dy="0.3em" class="nf-metro-section-label" data-section-id="rna_calling">RNA Variant Calling</text>
<rect x="1245.0" y="70.0" width="243.5" height="100.0" rx="8" ry="8" fill="#373737" stroke="#595959" stroke-width="1.0" class="nf-metro-section-box" data-section-id="annotation" data-section-lines="panel,rna_var,wes,wgs" />
<circle cx="1256.0" cy="55.0" r="11" fill="#333333" class="nf-metro-section-num-circle" data-section-id="annotation" />
<text x="1256.0" y="55.0" font-size="12" fill="#ffffff" font-family="'Helvetica Neue', Helvetica, Arial, sans-serif" font-weight="bold" text-anchor="middle" dy="0.3em" data-section-id="annotation">5</text>
<text x="1272.0" y="55.0" font-size="16.0" fill="#aaaaaa" font-family="'Helvetica Neue', Helvetica, Arial, sans-serif" font-weight="bold" dy="0.3em" class="nf-metro-section-label" data-section-id="annotation">Annotation &amp; Filtering</text>
<rect x="1538.5" y="70.0" width="187.0" height="100.0" rx="8" ry="8" fill="#373737" stroke="#595959" stroke-width="1.0" class="nf-metro-section-box" data-section-id="reporting" data-section-lines="panel,rna_var,wes,wgs" />
<circle cx="1549.5" cy="55.0" r="11" fill="#333333" class="nf-metro-section-num-circle" data-section-id="reporting" />
<text x="1549.5" y="55.0" font-size="12" fill="#ffffff" font-family="'Helvetica Neue', Helvetica, Arial, sans-serif" font-weight="bold" text-anchor="middle" dy="0.3em" data-section-id="reporting">6</text>
<text x="1565.5" y="55.0" font-size="16.0" fill="#aaaaaa" font-family="'Helvetica Neue', Helvetica, Arial, sans-serif" font-weight="bold" dy="0.3em" class="nf-metro-section-label" data-section-id="reporting">Reporting</text>
<path d="M80.0,129.0 L150.0,129.0" stroke="#e63946" stroke-width="3.0" stroke-linecap="round" class="metro-line-rna_var" data-line-id="rna_var" />
<path d="M150.0,129.0 L262.0,129.0" stroke="#e63946" stroke-width="3.0" stroke-linecap="round" class="metro-line-rna_var" data-line-id="rna_var" />
<path d="M150.0,129.0 L164.6217389726705,129.0 Q174.6217389726705,129.0,180.2551072190856,137.26227342807547 L198.9883707262554,164.73772657192453 Q204.6217389726705,173.0,214.6217389726705,173.0 L262.0,173.0" stroke="#e63946" stroke-width="3.0" fill="none" stroke-linecap="round" stroke-linejoin="round" class="metro-line-rna_var" data-line-id="rna_var" />
<path d="M262.0,129.0 L374.0,129.0" stroke="#e63946" stroke-width="3.0" stroke-linecap="round" class="metro-line-rna_var" data-line-id="rna_var" />
<path d="M262.0,173.0 L309.37826102732953,173.0 Q319.37826102732953,173.0,325.01162927374463,164.73772657192453 L343.7448927809144,137.26227342807547 Q349.37826102732953,129.0,359.37826102732953,129.0 L374.0,129.0" stroke="#e63946" stroke-width="3.0" fill="none" stroke-linecap="round" stroke-linejoin="round" class="metro-line-rna_var" data-line-id="rna_var" />
<path d="M566.0,173.0 L599.5,173.0 Q609.5,173.0,615.1333682464151,164.73772657192453 L633.8666317535849,137.26227342807547 Q639.5,129.0,649.5,129.0 L694.5,129.0" stroke="#e63946" stroke-width="3.0" fill="none" stroke-linecap="round" stroke-linejoin="round" class="metro-line-rna_var" data-line-id="rna_var" />
<path d="M694.5,129.0 L764.5,129.0" stroke="#e63946" stroke-width="3.0" stroke-linecap="round" class="metro-line-rna_var" data-line-id="rna_var" />
<path d="M764.5,129.0 L834.5,129.0" stroke="#e63946" stroke-width="3.0" stroke-linecap="round" class="metro-line-rna_var" data-line-id="rna_var" />
<path d="M988.0,367.0 L1058.0,367.0" stroke="#e63946" stroke-width="3.0" stroke-linecap="round" class="metro-line-rna_var" data-line-id="rna_var" />
<path d="M1058.0,367.0 L1128.0,367.0" stroke="#e63946" stroke-width="3.0" stroke-linecap="round" class="metro-line-rna_var" data-line-id="rna_var" />
<path d="M1295.0,129.0 L1365.0,129.0" stroke="#e63946" stroke-width="3.0" stroke-linecap="round" class="metro-line-rna_var" data-line-id="rna_var" />
<path d="M1365.0,129.0 L1435.0,129.0" stroke="#e63946" stroke-width="3.0" stroke-linecap="round" class="metro-line-rna_var" data-line-id="rna_var" />
<path d="M1605.5,129.0 L1675.5,129.0" stroke="#e63946" stroke-width="3.0" stroke-linecap="round" class="metro-line-rna_var" data-line-id="rna_var" />
<path d="M374.0,129.0 L424.0,129.0" stroke="#e63946" stroke-width="3.0" stroke-linecap="round" class="metro-line-rna_var" data-line-id="rna_var" />
<path d="M474.0,129.0 L482.5,129.0 Q492.5,129.0,498.1333682464151,137.26227342807547 L516.8666317535849,164.73772657192453 Q522.5,173.0,532.5,173.0 L566.0,173.0" stroke="#e63946" stroke-width="3.0" fill="none" stroke-linecap="round" stroke-linejoin="round" class="metro-line-rna_var" data-line-id="rna_var" />
<path d="M834.5,129.0 L884.5,129.0" stroke="#e63946" stroke-width="3.0" stroke-linecap="round" class="metro-line-rna_var" data-line-id="rna_var" />
<path d="M934.5,367.0 L988.0,367.0" stroke="#e63946" stroke-width="3.0" stroke-linecap="round" class="metro-line-rna_var" data-line-id="rna_var" />
<path d="M1128.0,367.0 L1195.0,367.0" stroke="#e63946" stroke-width="3.0" stroke-linecap="round" class="metro-line-rna_var" data-line-id="rna_var" />
<path d="M1245.0,129.0 L1295.0,129.0" stroke="#e63946" stroke-width="3.0" stroke-linecap="round" class="metro-line-rna_var" data-line-id="rna_var" />
<path d="M1435.0,129.0 L1488.5,129.0" stroke="#e63946" stroke-width="3.0" stroke-linecap="round" class="metro-line-rna_var" data-line-id="rna_var" />
<path d="M1538.5,129.0 L1605.5,129.0" stroke="#e63946" stroke-width="3.0" stroke-linecap="round" class="metro-line-rna_var" data-line-id="rna_var" />
<path d="M424.0,129.0 L474.0,129.0" stroke="#e63946" stroke-width="3.0" stroke-linecap="round" class="metro-line-rna_var" data-line-id="rna_var" />
<path d="M884.5,129.0 L894.5,129.0" stroke="#e63946" stroke-width="3.0" stroke-linecap="round" class="metro-line-rna_var" data-line-id="rna_var" />
<path d="M894.5,129.0 L899.5,129.0 Q909.5,129.0,909.5,139.0 L909.5,357.0 Q909.5,367.0,919.5,367.0 L934.5,367.0" stroke="#e63946" stroke-width="3.0" fill="none" stroke-linecap="round" stroke-linejoin="round" class="metro-line-rna_var" data-line-id="rna_var" />
<path d="M1195.0,367.0 L1210.0,367.0 Q1220.0,367.0,1220.0,357.0 L1220.0,139.0 Q1220.0,129.0,1230.0,129.0 L1245.0,129.0" stroke="#e63946" stroke-width="3.0" fill="none" stroke-linecap="round" stroke-linejoin="round" class="metro-line-rna_var" data-line-id="rna_var" />
<path d="M1488.5,129.0 L1538.5,129.0" stroke="#e63946" stroke-width="3.0" stroke-linecap="round" class="metro-line-rna_var" data-line-id="rna_var" />
<path d="M80.0,126.0 L150.0,126.0" stroke="#f5c542" stroke-width="3.0" stroke-linecap="round" class="metro-line-panel" data-line-id="panel" />
<path d="M150.0,126.0 L262.0,126.0" stroke="#f5c542" stroke-width="3.0" stroke-linecap="round" class="metro-line-panel" data-line-id="panel" />
<path d="M150.0,126.0 L166.2072463242235,126.0 Q176.2072463242235,126.0,181.8406145706386,134.26227342807547 L200.5738780778084,161.73772657192453 Q206.2072463242235,170.0,216.2072463242235,170.0 L262.0,170.0" stroke="#f5c542" stroke-width="3.0" fill="none" stroke-linecap="round" stroke-linejoin="round" class="metro-line-panel" data-line-id="panel" />
<path d="M262.0,126.0 L374.0,126.0" stroke="#f5c542" stroke-width="3.0" stroke-linecap="round" class="metro-line-panel" data-line-id="panel" />
<path d="M262.0,170.0 L307.7927536757765,170.0 Q317.7927536757765,170.0,323.4261219221916,161.73772657192453 L342.1593854293614,134.26227342807547 Q347.7927536757765,126.0,357.7927536757765,126.0 L374.0,126.0" stroke="#f5c542" stroke-width="3.0" fill="none" stroke-linecap="round" stroke-linejoin="round" class="metro-line-panel" data-line-id="panel" />
<path d="M566.0,126.0 L694.5,126.0" stroke="#f5c542" stroke-width="3.0" stroke-linecap="round" class="metro-line-panel" data-line-id="panel" />
<path d="M694.5,126.0 L764.5,126.0" stroke="#f5c542" stroke-width="3.0" stroke-linecap="round" class="metro-line-panel" data-line-id="panel" />
<path d="M764.5,126.0 L834.5,126.0" stroke="#f5c542" stroke-width="3.0" stroke-linecap="round" class="metro-line-panel" data-line-id="panel" />
<path d="M1026.5,214.0 L1057.2927536757766,214.0 Q1067.2927536757766,214.0,1070.5194929536578,204.5348981182146 L1094.0660143978953,135.4651018817854 Q1097.2927536757766,126.0,1107.2927536757766,126.0 L1141.5,126.0" stroke="#f5c542" stroke-width="3.0" fill="none" stroke-linecap="round" stroke-linejoin="round" class="metro-line-panel" data-line-id="panel" />
<path d="M1295.0,126.0 L1365.0,126.0" stroke="#f5c542" stroke-width="3.0" stroke-linecap="round" class="metro-line-panel" data-line-id="panel" />
<path d="M1365.0,126.0 L1435.0,126.0" stroke="#f5c542" stroke-width="3.0" stroke-linecap="round" class="metro-line-panel" data-line-id="panel" />
<path d="M1605.5,126.0 L1675.5,126.0" stroke="#f5c542" stroke-width="3.0" stroke-linecap="round" class="metro-line-panel" data-line-id="panel" />
<path d="M374.0,126.0 L424.0,126.0" stroke="#f5c542" stroke-width="3.0" stroke-linecap="round" class="metro-line-panel" data-line-id="panel" />
<path d="M474.0,126.0 L566.0,126.0" stroke="#f5c542" stroke-width="3.0" stroke-linecap="round" class="metro-line-panel" data-line-id="panel" />
<path d="M834.5,126.0 L884.5,126.0" stroke="#f5c542" stroke-width="3.0" stroke-linecap="round" class="metro-line-panel" data-line-id="panel" />
<path d="M934.5,126.0 L938.7072463242235,126.0 Q948.7072463242235,126.0,951.9339856021049,135.4651018817854 L975.4805070463422,204.5348981182146 Q978.7072463242235,214.0,988.7072463242235,214.0 L1026.5,214.0" stroke="#f5c542" stroke-width="3.0" fill="none" stroke-linecap="round" stroke-linejoin="round" class="metro-line-panel" data-line-id="panel" />
<path d="M1141.5,126.0 L1191.5,126.0" stroke="#f5c542" stroke-width="3.0" stroke-linecap="round" class="metro-line-panel" data-line-id="panel" />
<path d="M1245.0,126.0 L1295.0,126.0" stroke="#f5c542" stroke-width="3.0" stroke-linecap="round" class="metro-line-panel" data-line-id="panel" />
<path d="M1435.0,126.0 L1488.5,126.0" stroke="#f5c542" stroke-width="3.0" stroke-linecap="round" class="metro-line-panel" data-line-id="panel" />
<path d="M1538.5,126.0 L1605.5,126.0" stroke="#f5c542" stroke-width="3.0" stroke-linecap="round" class="metro-line-panel" data-line-id="panel" />
<path d="M424.0,126.0 L474.0,126.0" stroke="#f5c542" stroke-width="3.0" stroke-linecap="round" class="metro-line-panel" data-line-id="panel" />
<path d="M884.5,126.0 L894.5,126.0" stroke="#f5c542" stroke-width="3.0" stroke-linecap="round" class="metro-line-panel" data-line-id="panel" />
<path d="M894.5,126.0 L934.5,126.0" stroke="#f5c542" stroke-width="3.0" stroke-linecap="round" class="metro-line-panel" data-line-id="panel" />
<path d="M1191.5,126.0 L1245.0,126.0" stroke="#f5c542" stroke-width="3.0" stroke-linecap="round" class="metro-line-panel" data-line-id="panel" />
<path d="M1488.5,126.0 L1538.5,126.0" stroke="#f5c542" stroke-width="3.0" stroke-linecap="round" class="metro-line-panel" data-line-id="panel" />
<path d="M80.0,123.0 L150.0,123.0" stroke="#0570b0" stroke-width="3.0" stroke-linecap="round" class="metro-line-wes" data-line-id="wes" />
<path d="M150.0,123.0 L262.0,123.0" stroke="#0570b0" stroke-width="3.0" stroke-linecap="round" class="metro-line-wes" data-line-id="wes" />
<path d="M150.0,123.0 L167.7927536757765,123.0 Q177.7927536757765,123.0,183.4261219221916,131.26227342807547 L202.1593854293614,158.73772657192453 Q207.7927536757765,167.0,217.7927536757765,167.0 L262.0,167.0" stroke="#0570b0" stroke-width="3.0" fill="none" stroke-linecap="round" stroke-linejoin="round" class="metro-line-wes" data-line-id="wes" />
<path d="M262.0,123.0 L374.0,123.0" stroke="#0570b0" stroke-width="3.0" stroke-linecap="round" class="metro-line-wes" data-line-id="wes" />
<path d="M262.0,167.0 L306.2072463242235,167.0 Q316.2072463242235,167.0,321.8406145706386,158.73772657192453 L340.5738780778084,131.26227342807547 Q346.2072463242235,123.0,356.2072463242235,123.0 L374.0,123.0" stroke="#0570b0" stroke-width="3.0" fill="none" stroke-linecap="round" stroke-linejoin="round" class="metro-line-wes" data-line-id="wes" />
<path d="M566.0,123.0 L694.5,123.0" stroke="#0570b0" stroke-width="3.0" stroke-linecap="round" class="metro-line-wes" data-line-id="wes" />
<path d="M694.5,123.0 L764.5,123.0" stroke="#0570b0" stroke-width="3.0" stroke-linecap="round" class="metro-line-wes" data-line-id="wes" />
<path d="M764.5,123.0 L834.5,123.0" stroke="#0570b0" stroke-width="3.0" stroke-linecap="round" class="metro-line-wes" data-line-id="wes" />
<path d="M1026.5,167.0 L1055.7072463242234,167.0 Q1065.7072463242234,167.0,1071.3406145706385,158.73772657192453 L1090.0738780778083,131.26227342807547 Q1095.7072463242234,123.0,1105.7072463242234,123.0 L1141.5,123.0" stroke="#0570b0" stroke-width="3.0" fill="none" stroke-linecap="round" stroke-linejoin="round" class="metro-line-wes" data-line-id="wes" />
<path d="M1295.0,123.0 L1365.0,123.0" stroke="#0570b0" stroke-width="3.0" stroke-linecap="round" class="metro-line-wes" data-line-id="wes" />
<path d="M1365.0,123.0 L1435.0,123.0" stroke="#0570b0" stroke-width="3.0" stroke-linecap="round" class="metro-line-wes" data-line-id="wes" />
<path d="M1605.5,123.0 L1675.5,123.0" stroke="#0570b0" stroke-width="3.0" stroke-linecap="round" class="metro-line-wes" data-line-id="wes" />
<path d="M374.0,123.0 L424.0,123.0" stroke="#0570b0" stroke-width="3.0" stroke-linecap="round" class="metro-line-wes" data-line-id="wes" />
<path d="M474.0,123.0 L566.0,123.0" stroke="#0570b0" stroke-width="3.0" stroke-linecap="round" class="metro-line-wes" data-line-id="wes" />
<path d="M834.5,123.0 L884.5,123.0" stroke="#0570b0" stroke-width="3.0" stroke-linecap="round" class="metro-line-wes" data-line-id="wes" />
<path d="M934.5,123.0 L940.2927536757765,123.0 Q950.2927536757765,123.0,955.9261219221916,131.26227342807547 L974.6593854293614,158.73772657192453 Q980.2927536757765,167.0,990.2927536757765,167.0 L1026.5,167.0" stroke="#0570b0" stroke-width="3.0" fill="none" stroke-linecap="round" stroke-linejoin="round" class="metro-line-wes" data-line-id="wes" />
<path d="M1141.5,123.0 L1191.5,123.0" stroke="#0570b0" stroke-width="3.0" stroke-linecap="round" class="metro-line-wes" data-line-id="wes" />
<path d="M1245.0,123.0 L1295.0,123.0" stroke="#0570b0" stroke-width="3.0" stroke-linecap="round" class="metro-line-wes" data-line-id="wes" />
<path d="M1435.0,123.0 L1488.5,123.0" stroke="#0570b0" stroke-width="3.0" stroke-linecap="round" class="metro-line-wes" data-line-id="wes" />
<path d="M1538.5,123.0 L1605.5,123.0" stroke="#0570b0" stroke-width="3.0" stroke-linecap="round" class="metro-line-wes" data-line-id="wes" />
<path d="M424.0,123.0 L474.0,123.0" stroke="#0570b0" stroke-width="3.0" stroke-linecap="round" class="metro-line-wes" data-line-id="wes" />
<path d="M884.5,123.0 L894.5,123.0" stroke="#0570b0" stroke-width="3.0" stroke-linecap="round" class="metro-line-wes" data-line-id="wes" />
<path d="M894.5,123.0 L934.5,123.0" stroke="#0570b0" stroke-width="3.0" stroke-linecap="round" class="metro-line-wes" data-line-id="wes" />
<path d="M1191.5,123.0 L1245.0,123.0" stroke="#0570b0" stroke-width="3.0" stroke-linecap="round" class="metro-line-wes" data-line-id="wes" />
<path d="M1488.5,123.0 L1538.5,123.0" stroke="#0570b0" stroke-width="3.0" stroke-linecap="round" class="metro-line-wes" data-line-id="wes" />
<path d="M80.0,120.0 L150.0,120.0" stroke="#2db572" stroke-width="3.0" stroke-linecap="round" class="metro-line-wgs" data-line-id="wgs" />
<path d="M150.0,120.0 L262.0,120.0" stroke="#2db572" stroke-width="3.0" stroke-linecap="round" class="metro-line-wgs" data-line-id="wgs" />
<path d="M150.0,120.0 L169.3782610273295,120.0 Q179.3782610273295,120.0,185.0116292737446,128.26227342807547 L203.7448927809144,155.73772657192453 Q209.3782610273295,164.0,219.3782610273295,164.0 L262.0,164.0" stroke="#2db572" stroke-width="3.0" fill="none" stroke-linecap="round" stroke-linejoin="round" class="metro-line-wgs" data-line-id="wgs" />
<path d="M262.0,120.0 L374.0,120.0" stroke="#2db572" stroke-width="3.0" stroke-linecap="round" class="metro-line-wgs" data-line-id="wgs" />
<path d="M262.0,164.0 L304.62173897267047,164.0 Q314.62173897267047,164.0,320.2551072190856,155.73772657192453 L338.98837072625537,128.26227342807547 Q344.62173897267047,120.0,354.62173897267047,120.0 L374.0,120.0" stroke="#2db572" stroke-width="3.0" fill="none" stroke-linecap="round" stroke-linejoin="round" class="metro-line-wgs" data-line-id="wgs" />
<path d="M566.0,120.0 L694.5,120.0" stroke="#2db572" stroke-width="3.0" stroke-linecap="round" class="metro-line-wgs" data-line-id="wgs" />
<path d="M694.5,120.0 L764.5,120.0" stroke="#2db572" stroke-width="3.0" stroke-linecap="round" class="metro-line-wgs" data-line-id="wgs" />
<path d="M764.5,120.0 L834.5,120.0" stroke="#2db572" stroke-width="3.0" stroke-linecap="round" class="metro-line-wgs" data-line-id="wgs" />
<path d="M1026.5,120.0 L1141.5,120.0" stroke="#2db572" stroke-width="3.0" stroke-linecap="round" class="metro-line-wgs" data-line-id="wgs" />
<path d="M1295.0,120.0 L1365.0,120.0" stroke="#2db572" stroke-width="3.0" stroke-linecap="round" class="metro-line-wgs" data-line-id="wgs" />
<path d="M1365.0,120.0 L1435.0,120.0" stroke="#2db572" stroke-width="3.0" stroke-linecap="round" class="metro-line-wgs" data-line-id="wgs" />
<path d="M1605.5,120.0 L1675.5,120.0" stroke="#2db572" stroke-width="3.0" stroke-linecap="round" class="metro-line-wgs" data-line-id="wgs" />
<path d="M374.0,120.0 L424.0,120.0" stroke="#2db572" stroke-width="3.0" stroke-linecap="round" class="metro-line-wgs" data-line-id="wgs" />
<path d="M474.0,120.0 L566.0,120.0" stroke="#2db572" stroke-width="3.0" stroke-linecap="round" class="metro-line-wgs" data-line-id="wgs" />
<path d="M834.5,120.0 L884.5,120.0" stroke="#2db572" stroke-width="3.0" stroke-linecap="round" class="metro-line-wgs" data-line-id="wgs" />
<path d="M934.5,120.0 L1026.5,120.0" stroke="#2db572" stroke-width="3.0" stroke-linecap="round" class="metro-line-wgs" data-line-id="wgs" />
<path d="M1141.5,120.0 L1191.5,120.0" stroke="#2db572" stroke-width="3.0" stroke-linecap="round" class="metro-line-wgs" data-line-id="wgs" />
<path d="M1245.0,120.0 L1295.0,120.0" stroke="#2db572" stroke-width="3.0" stroke-linecap="round" class="metro-line-wgs" data-line-id="wgs" />
<path d="M1435.0,120.0 L1488.5,120.0" stroke="#2db572" stroke-width="3.0" stroke-linecap="round" class="metro-line-wgs" data-line-id="wgs" />
<path d="M1538.5,120.0 L1605.5,120.0" stroke="#2db572" stroke-width="3.0" stroke-linecap="round" class="metro-line-wgs" data-line-id="wgs" />
<path d="M424.0,120.0 L474.0,120.0" stroke="#2db572" stroke-width="3.0" stroke-linecap="round" class="metro-line-wgs" data-line-id="wgs" />
<path d="M884.5,120.0 L894.5,120.0" stroke="#2db572" stroke-width="3.0" stroke-linecap="round" class="metro-line-wgs" data-line-id="wgs" />
<path d="M894.5,120.0 L934.5,120.0" stroke="#2db572" stroke-width="3.0" stroke-linecap="round" class="metro-line-wgs" data-line-id="wgs" />
<path d="M1191.5,120.0 L1245.0,120.0" stroke="#2db572" stroke-width="3.0" stroke-linecap="round" class="metro-line-wgs" data-line-id="wgs" />
<path d="M1488.5,120.0 L1538.5,120.0" stroke="#2db572" stroke-width="3.0" stroke-linecap="round" class="metro-line-wgs" data-line-id="wgs" />
<rect x="75.0" y="115.0" width="10.0" height="19.0" rx="5.0" ry="5.0" fill="#ffffff" stroke="#333333" stroke-width="1.5" class="nf-metro-station" data-station-id="input" data-station-lines="panel,rna_var,wes,wgs" data-station-label="Input" data-section-id="input_qc" data-section-name="Input &amp; QC" />
<rect x="145.0" y="115.0" width="10.0" height="19.0" rx="5.0" ry="5.0" fill="#ffffff" stroke="#333333" stroke-width="1.5" class="nf-metro-station" data-station-id="fastqc" data-station-lines="panel,rna_var,wes,wgs" data-station-label="FastQC" data-section-id="input_qc" data-section-name="Input &amp; QC" />
<rect x="257.0" y="115.0" width="10.0" height="19.0" rx="5.0" ry="5.0" fill="#ffffff" stroke="#333333" stroke-width="1.5" class="nf-metro-station" data-station-id="fastp" data-station-lines="panel,rna_var,wes,wgs" data-station-label="FastP" data-section-id="input_qc" data-section-name="Input &amp; QC" />
<rect x="257.0" y="159.0" width="10.0" height="19.0" rx="5.0" ry="5.0" fill="#ffffff" stroke="#333333" stroke-width="1.5" class="nf-metro-station" data-station-id="trimgalore" data-station-lines="panel,rna_var,wes,wgs" data-station-label="Trim Galore!" data-section-id="input_qc" data-section-name="Input &amp; QC" />
<rect x="369.0" y="115.0" width="10.0" height="19.0" rx="5.0" ry="5.0" fill="#ffffff" stroke="#333333" stroke-width="1.5" class="nf-metro-station" data-station-id="fastqc_trim" data-station-lines="panel,rna_var,wes,wgs" data-station-label="FastQC" data-section-id="input_qc" data-section-name="Input &amp; QC" />
<rect x="561.0" y="115.0" width="10.0" height="16.0" rx="5.0" ry="5.0" fill="#ffffff" stroke="#333333" stroke-width="1.5" class="nf-metro-station" data-station-id="bwa" data-station-lines="panel,wes,wgs" data-station-label="BWA-MEM2" data-section-id="alignment" data-section-name="Alignment" />
<rect x="561.0" y="168.0" width="10.0" height="10.0" rx="5.0" ry="5.0" fill="#ffffff" stroke="#333333" stroke-width="1.5" class="nf-metro-station" data-station-id="star_align" data-station-lines="rna_var" data-station-label="STAR" data-section-id="alignment" data-section-name="Alignment" />
<rect x="689.5" y="115.0" width="10.0" height="19.0" rx="5.0" ry="5.0" fill="#ffffff" stroke="#333333" stroke-width="1.5" class="nf-metro-station" data-station-id="samtools" data-station-lines="panel,rna_var,wes,wgs" data-station-label="SAMtools sort" data-section-id="alignment" data-section-name="Alignment" />
<rect x="759.5" y="115.0" width="10.0" height="19.0" rx="5.0" ry="5.0" fill="#ffffff" stroke="#333333" stroke-width="1.5" class="nf-metro-station" data-station-id="markdup" data-station-lines="panel,rna_var,wes,wgs" data-station-label="MarkDuplicates" data-section-id="alignment" data-section-name="Alignment" />
<rect x="829.5" y="115.0" width="10.0" height="19.0" rx="5.0" ry="5.0" fill="#ffffff" stroke="#333333" stroke-width="1.5" class="nf-metro-station" data-station-id="bqsr" data-station-lines="panel,rna_var,wes,wgs" data-station-label="BQSR" data-section-id="alignment" data-section-name="Alignment" />
<rect x="1021.5" y="115.0" width="10.0" height="10.0" rx="5.0" ry="5.0" fill="#ffffff" stroke="#333333" stroke-width="1.5" class="nf-metro-station" data-station-id="haplotypecaller" data-station-lines="wgs" data-station-label="HaplotypeCaller" data-section-id="dna_calling" data-section-name="DNA Variant Calling" />
<rect x="1021.5" y="162.0" width="10.0" height="10.0" rx="5.0" ry="5.0" fill="#ffffff" stroke="#333333" stroke-width="1.5" class="nf-metro-station" data-station-id="deepvariant" data-station-lines="wes" data-station-label="DeepVariant" data-section-id="dna_calling" data-section-name="DNA Variant Calling" />
<rect x="1021.5" y="209.0" width="10.0" height="10.0" rx="5.0" ry="5.0" fill="#ffffff" stroke="#333333" stroke-width="1.5" class="nf-metro-station" data-station-id="strelka" data-station-lines="panel" data-station-label="Strelka2" data-section-id="dna_calling" data-section-name="DNA Variant Calling" />
<rect x="1136.5" y="115.0" width="10.0" height="16.0" rx="5.0" ry="5.0" fill="#ffffff" stroke="#333333" stroke-width="1.5" class="nf-metro-station" data-station-id="merge_vcf" data-station-lines="panel,wes,wgs" data-station-label="Merge VCFs" data-section-id="dna_calling" data-section-name="DNA Variant Calling" />
<rect x="983.0" y="362.0" width="10.0" height="10.0" rx="5.0" ry="5.0" fill="#ffffff" stroke="#333333" stroke-width="1.5" class="nf-metro-station" data-station-id="splitncigar" data-station-lines="rna_var" data-station-label="SplitNCigar" data-section-id="rna_calling" data-section-name="RNA Variant Calling" />
<rect x="1053.0" y="362.0" width="10.0" height="10.0" rx="5.0" ry="5.0" fill="#ffffff" stroke="#333333" stroke-width="1.5" class="nf-metro-station" data-station-id="rna_hc" data-station-lines="rna_var" data-station-label="HaplotypeCaller" data-section-id="rna_calling" data-section-name="RNA Variant Calling" />
<rect x="1123.0" y="362.0" width="10.0" height="10.0" rx="5.0" ry="5.0" fill="#ffffff" stroke="#333333" stroke-width="1.5" class="nf-metro-station" data-station-id="rna_filter" data-station-lines="rna_var" data-station-label="FilterVariants" data-section-id="rna_calling" data-section-name="RNA Variant Calling" />
<rect x="1290.0" y="115.0" width="10.0" height="19.0" rx="5.0" ry="5.0" fill="#ffffff" stroke="#333333" stroke-width="1.5" class="nf-metro-station" data-station-id="vep" data-station-lines="panel,rna_var,wes,wgs" data-station-label="VEP" data-section-id="annotation" data-section-name="Annotation &amp; Filtering" />
<rect x="1360.0" y="115.0" width="10.0" height="19.0" rx="5.0" ry="5.0" fill="#ffffff" stroke="#333333" stroke-width="1.5" class="nf-metro-station" data-station-id="snpsift" data-station-lines="panel,rna_var,wes,wgs" data-station-label="SnpSift" data-section-id="annotation" data-section-name="Annotation &amp; Filtering" />
<rect x="1430.0" y="115.0" width="10.0" height="19.0" rx="5.0" ry="5.0" fill="#ffffff" stroke="#333333" stroke-width="1.5" class="nf-metro-station" data-station-id="filter_pass" data-station-lines="panel,rna_var,wes,wgs" data-station-label="Filter PASS" data-section-id="annotation" data-section-name="Annotation &amp; Filtering" />
<rect x="1600.5" y="115.0" width="10.0" height="19.0" rx="5.0" ry="5.0" fill="#ffffff" stroke="#333333" stroke-width="1.5" class="nf-metro-station" data-station-id="bcftools_stats" data-station-lines="panel,rna_var,wes,wgs" data-station-label="bcftools stats" data-section-id="reporting" data-section-name="Reporting" />
<rect x="1670.5" y="115.0" width="10.0" height="19.0" rx="5.0" ry="5.0" fill="#ffffff" stroke="#333333" stroke-width="1.5" class="nf-metro-station" data-station-id="multiqc" data-station-lines="panel,rna_var,wes,wgs" data-station-label="MultiQC" data-section-id="reporting" data-section-name="Reporting" />
<text x="80.0" y="140.0" font-size="13.0" fill="#e0e0e0" font-family="'Helvetica Neue', Helvetica, Arial, sans-serif" font-weight="bold" text-anchor="middle" dominant-baseline="hanging" data-station-id="input" class="nf-metro-station-label">Input</text>
<text x="566.0" y="106.0" font-size="13.0" fill="#e0e0e0" font-family="'Helvetica Neue', Helvetica, Arial, sans-serif" font-weight="bold" text-anchor="middle" dominant-baseline="auto" data-station-id="bwa" class="nf-metro-station-label">BWA-MEM2</text>
<text x="1026.5" y="106.0" font-size="13.0" fill="#e0e0e0" font-family="'Helvetica Neue', Helvetica, Arial, sans-serif" font-weight="bold" text-anchor="middle" dominant-baseline="auto" data-station-id="haplotypecaller" class="nf-metro-station-label">HaplotypeCaller</text>
<text x="1295.0" y="140.0" font-size="13.0" fill="#e0e0e0" font-family="'Helvetica Neue', Helvetica, Arial, sans-serif" font-weight="bold" text-anchor="middle" dominant-baseline="hanging" data-station-id="vep" class="nf-metro-station-label">VEP</text>
<text x="1605.5" y="140.0" font-size="13.0" fill="#e0e0e0" font-family="'Helvetica Neue', Helvetica, Arial, sans-serif" font-weight="bold" text-anchor="middle" dominant-baseline="hanging" data-station-id="bcftools_stats" class="nf-metro-station-label">bcftools stats</text>
<text x="566.0" y="184.0" font-size="13.0" fill="#e0e0e0" font-family="'Helvetica Neue', Helvetica, Arial, sans-serif" font-weight="bold" text-anchor="middle" dominant-baseline="hanging" data-station-id="star_align" class="nf-metro-station-label">STAR</text>
<text x="1026.5" y="153.0" font-size="13.0" fill="#e0e0e0" font-family="'Helvetica Neue', Helvetica, Arial, sans-serif" font-weight="bold" text-anchor="middle" dominant-baseline="auto" data-station-id="deepvariant" class="nf-metro-station-label">DeepVariant</text>
<text x="1026.5" y="225.0" font-size="13.0" fill="#e0e0e0" font-family="'Helvetica Neue', Helvetica, Arial, sans-serif" font-weight="bold" text-anchor="middle" dominant-baseline="hanging" data-station-id="strelka" class="nf-metro-station-label">Strelka2</text>
<text x="988.0" y="378.0" font-size="13.0" fill="#e0e0e0" font-family="'Helvetica Neue', Helvetica, Arial, sans-serif" font-weight="bold" text-anchor="middle" dominant-baseline="hanging" data-station-id="splitncigar" class="nf-metro-station-label">SplitNCigar</text>
<text x="150.0" y="106.0" font-size="13.0" fill="#e0e0e0" font-family="'Helvetica Neue', Helvetica, Arial, sans-serif" font-weight="bold" text-anchor="middle" dominant-baseline="auto" data-station-id="fastqc" class="nf-metro-station-label">FastQC</text>
<text x="694.5" y="140.0" font-size="13.0" fill="#e0e0e0" font-family="'Helvetica Neue', Helvetica, Arial, sans-serif" font-weight="bold" text-anchor="middle" dominant-baseline="hanging" data-station-id="samtools" class="nf-metro-station-label">SAMtools sort</text>
<text x="1141.5" y="137.0" font-size="13.0" fill="#e0e0e0" font-family="'Helvetica Neue', Helvetica, Arial, sans-serif" font-weight="bold" text-anchor="middle" dominant-baseline="hanging" data-station-id="merge_vcf" class="nf-metro-station-label">Merge VCFs</text>
<text x="1365.0" y="106.0" font-size="13.0" fill="#e0e0e0" font-family="'Helvetica Neue', Helvetica, Arial, sans-serif" font-weight="bold" text-anchor="middle" dominant-baseline="auto" data-station-id="snpsift" class="nf-metro-station-label">SnpSift</text>
<text x="1675.5" y="106.0" font-size="13.0" fill="#e0e0e0" font-family="'Helvetica Neue', Helvetica, Arial, sans-serif" font-weight="bold" text-anchor="middle" dominant-baseline="auto" data-station-id="multiqc" class="nf-metro-station-label">MultiQC</text>
<text x="1058.0" y="353.0" font-size="13.0" fill="#e0e0e0" font-family="'Helvetica Neue', Helvetica, Arial, sans-serif" font-weight="bold" text-anchor="middle" dominant-baseline="auto" data-station-id="rna_hc" class="nf-metro-station-label">HaplotypeCaller</text>
<text x="262.0" y="137.4" font-size="13.0" fill="#e0e0e0" font-family="'Helvetica Neue', Helvetica, Arial, sans-serif" font-weight="bold" text-anchor="middle" dominant-baseline="hanging" data-station-id="fastp" class="nf-metro-station-label">FastP</text>
<text x="764.5" y="106.0" font-size="13.0" fill="#e0e0e0" font-family="'Helvetica Neue', Helvetica, Arial, sans-serif" font-weight="bold" text-anchor="middle" dominant-baseline="auto" data-station-id="markdup" class="nf-metro-station-label">MarkDuplicates</text>
<text x="1435.0" y="140.0" font-size="13.0" fill="#e0e0e0" font-family="'Helvetica Neue', Helvetica, Arial, sans-serif" font-weight="bold" text-anchor="middle" dominant-baseline="hanging" data-station-id="filter_pass" class="nf-metro-station-label">Filter PASS</text>
<text x="262.0" y="184.0" font-size="13.0" fill="#e0e0e0" font-family="'Helvetica Neue', Helvetica, Arial, sans-serif" font-weight="bold" text-anchor="middle" dominant-baseline="hanging" data-station-id="trimgalore" class="nf-metro-station-label">Trim Galore!</text>
<text x="1128.0" y="378.0" font-size="13.0" fill="#e0e0e0" font-family="'Helvetica Neue', Helvetica, Arial, sans-serif" font-weight="bold" text-anchor="middle" dominant-baseline="hanging" data-station-id="rna_filter" class="nf-metro-station-label">FilterVariants</text>
<text x="374.0" y="106.0" font-size="13.0" fill="#e0e0e0" font-family="'Helvetica Neue', Helvetica, Arial, sans-serif" font-weight="bold" text-anchor="middle" dominant-baseline="auto" data-station-id="fastqc_trim" class="nf-metro-station-label">FastQC</text>
<text x="834.5" y="140.0" font-size="13.0" fill="#e0e0e0" font-family="'Helvetica Neue', Helvetica, Arial, sans-serif" font-weight="bold" text-anchor="middle" dominant-baseline="hanging" data-station-id="bqsr" class="nf-metro-station-label">BQSR</text>
<circle cx="179.3782610273295" cy="120.0" r="3.0" fill="rgba(255, 200, 50, 0.6)" />
<circle cx="209.3782610273295" cy="164.0" r="3.0" fill="rgba(255, 200, 50, 0.6)" />
<circle cx="177.7927536757765" cy="123.0" r="3.0" fill="rgba(255, 200, 50, 0.6)" />
<circle cx="207.7927536757765" cy="167.0" r="3.0" fill="rgba(255, 200, 50, 0.6)" />
<circle cx="176.2072463242235" cy="126.0" r="3.0" fill="rgba(255, 200, 50, 0.6)" />
<circle cx="206.2072463242235" cy="170.0" r="3.0" fill="rgba(255, 200, 50, 0.6)" />
<circle cx="174.6217389726705" cy="129.0" r="3.0" fill="rgba(255, 200, 50, 0.6)" />
<circle cx="204.6217389726705" cy="173.0" r="3.0" fill="rgba(255, 200, 50, 0.6)" />
<circle cx="314.62173897267047" cy="164.0" r="3.0" fill="rgba(255, 200, 50, 0.6)" />
<circle cx="344.62173897267047" cy="120.0" r="3.0" fill="rgba(255, 200, 50, 0.6)" />
<circle cx="316.2072463242235" cy="167.0" r="3.0" fill="rgba(255, 200, 50, 0.6)" />
<circle cx="346.2072463242235" cy="123.0" r="3.0" fill="rgba(255, 200, 50, 0.6)" />
<circle cx="317.7927536757765" cy="170.0" r="3.0" fill="rgba(255, 200, 50, 0.6)" />
<circle cx="347.7927536757765" cy="126.0" r="3.0" fill="rgba(255, 200, 50, 0.6)" />
<circle cx="319.37826102732953" cy="173.0" r="3.0" fill="rgba(255, 200, 50, 0.6)" />
<circle cx="349.37826102732953" cy="129.0" r="3.0" fill="rgba(255, 200, 50, 0.6)" />
<circle cx="609.5" cy="173.0" r="3.0" fill="rgba(255, 200, 50, 0.6)" />
<circle cx="639.5" cy="129.0" r="3.0" fill="rgba(255, 200, 50, 0.6)" />
<circle cx="1065.7072463242234" cy="167.0" r="3.0" fill="rgba(255, 200, 50, 0.6)" />
<circle cx="1095.7072463242234" cy="123.0" r="3.0" fill="rgba(255, 200, 50, 0.6)" />
<circle cx="1067.2927536757766" cy="214.0" r="3.0" fill="rgba(255, 200, 50, 0.6)" />
<circle cx="1097.2927536757766" cy="126.0" r="3.0" fill="rgba(255, 200, 50, 0.6)" />
<circle cx="492.5" cy="129.0" r="3.0" fill="rgba(255, 200, 50, 0.6)" />
<circle cx="522.5" cy="173.0" r="3.0" fill="rgba(255, 200, 50, 0.6)" />
<circle cx="950.2927536757765" cy="123.0" r="3.0" fill="rgba(255, 200, 50, 0.6)" />
<circle cx="980.2927536757765" cy="167.0" r="3.0" fill="rgba(255, 200, 50, 0.6)" />
<circle cx="948.7072463242235" cy="126.0" r="3.0" fill="rgba(255, 200, 50, 0.6)" />
<circle cx="978.7072463242235" cy="214.0" r="3.0" fill="rgba(255, 200, 50, 0.6)" />
<circle cx="909.5" cy="129.0" r="3.0" fill="rgba(255, 200, 50, 0.6)" />
<circle cx="909.5" cy="367.0" r="3.0" fill="rgba(255, 200, 50, 0.6)" />
<circle cx="1220.0" cy="367.0" r="3.0" fill="rgba(255, 200, 50, 0.6)" />
<circle cx="1220.0" cy="129.0" r="3.0" fill="rgba(255, 200, 50, 0.6)" />
<path d="M424.0,115.0 L429.0,120.0 L424.0,125.0 L419.0,120.0 Z" fill="rgba(80, 180, 255, 0.7)" stroke="none" />
<text x="424.0" y="112.0" font-size="7" fill="rgba(80, 180, 255, 0.7)" font-family="'Helvetica Neue', Helvetica, Arial, sans-serif" text-anchor="middle" dominant-baseline="auto">input_qc__exit_right_0 (right)</text>
<path d="M884.5,115.0 L889.5,120.0 L884.5,125.0 L879.5,120.0 Z" fill="rgba(80, 180, 255, 0.7)" stroke="none" />
<text x="884.5" y="112.0" font-size="7" fill="rgba(80, 180, 255, 0.7)" font-family="'Helvetica Neue', Helvetica, Arial, sans-serif" text-anchor="middle" dominant-baseline="auto">alignment__exit_right_1 (right)</text>
<path d="M1191.5,115.0 L1196.5,120.0 L1191.5,125.0 L1186.5,120.0 Z" fill="rgba(80, 180, 255, 0.7)" stroke="none" />
<text x="1191.5" y="112.0" font-size="7" fill="rgba(80, 180, 255, 0.7)" font-family="'Helvetica Neue', Helvetica, Arial, sans-serif" text-anchor="middle" dominant-baseline="auto">dna_calling__exit_right_2 (right)</text>
<path d="M1195.0,353.0 L1200.0,358.0 L1195.0,363.0 L1190.0,358.0 Z" fill="rgba(80, 180, 255, 0.7)" stroke="none" />
<text x="1195.0" y="350.0" font-size="7" fill="rgba(80, 180, 255, 0.7)" font-family="'Helvetica Neue', Helvetica, Arial, sans-serif" text-anchor="middle" dominant-baseline="auto">rna_calling__exit_right_3 (right)</text>
<path d="M1488.5,115.0 L1493.5,120.0 L1488.5,125.0 L1483.5,120.0 Z" fill="rgba(80, 180, 255, 0.7)" stroke="none" />
<text x="1488.5" y="112.0" font-size="7" fill="rgba(80, 180, 255, 0.7)" font-family="'Helvetica Neue', Helvetica, Arial, sans-serif" text-anchor="middle" dominant-baseline="auto">annotation__exit_right_4 (right)</text>
<path d="M474.0,115.0 L479.0,120.0 L474.0,125.0 L469.0,120.0 Z" fill="rgba(255, 80, 80, 0.7)" stroke="none" />
<text x="474.0" y="112.0" font-size="7" fill="rgba(255, 80, 80, 0.7)" font-family="'Helvetica Neue', Helvetica, Arial, sans-serif" text-anchor="middle" dominant-baseline="auto">alignment__entry_left_5 (left)</text>
<path d="M934.5,115.0 L939.5,120.0 L934.5,125.0 L929.5,120.0 Z" fill="rgba(255, 80, 80, 0.7)" stroke="none" />
<text x="934.5" y="112.0" font-size="7" fill="rgba(255, 80, 80, 0.7)" font-family="'Helvetica Neue', Helvetica, Arial, sans-serif" text-anchor="middle" dominant-baseline="auto">dna_calling__entry_left_6 (left)</text>
<path d="M934.5,353.0 L939.5,358.0 L934.5,363.0 L929.5,358.0 Z" fill="rgba(255, 80, 80, 0.7)" stroke="none" />
<text x="934.5" y="350.0" font-size="7" fill="rgba(255, 80, 80, 0.7)" font-family="'Helvetica Neue', Helvetica, Arial, sans-serif" text-anchor="middle" dominant-baseline="auto">rna_calling__entry_left_7 (left)</text>
<path d="M1245.0,115.0 L1250.0,120.0 L1245.0,125.0 L1240.0,120.0 Z" fill="rgba(255, 80, 80, 0.7)" stroke="none" />
<text x="1245.0" y="112.0" font-size="7" fill="rgba(255, 80, 80, 0.7)" font-family="'Helvetica Neue', Helvetica, Arial, sans-serif" text-anchor="middle" dominant-baseline="auto">annotation__entry_left_8 (left)</text>
<path d="M1538.5,115.0 L1543.5,120.0 L1538.5,125.0 L1533.5,120.0 Z" fill="rgba(255, 80, 80, 0.7)" stroke="none" />
<text x="1538.5" y="112.0" font-size="7" fill="rgba(255, 80, 80, 0.7)" font-family="'Helvetica Neue', Helvetica, Arial, sans-serif" text-anchor="middle" dominant-baseline="auto">reporting__entry_left_9 (left)</text>
<path d="M894.5,115.0 L899.5,120.0 L894.5,125.0 L889.5,120.0 Z" fill="rgba(255, 80, 80, 0.7)" stroke="none" />
<text x="894.5" y="112.0" font-size="7" fill="rgba(255, 80, 80, 0.7)" font-family="'Helvetica Neue', Helvetica, Arial, sans-serif" text-anchor="middle" dominant-baseline="auto">__junction_10 (?)</text>
<path d="M449.0,50.0 L449.0,428.0" stroke="rgba(255, 255, 0, 0.5)" stroke-width="1" stroke-dasharray="6,4" />
<text x="449.0" y="46.0" font-size="7" fill="rgba(255, 255, 0, 0.5)" font-family="'Helvetica Neue', Helvetica, Arial, sans-serif" text-anchor="middle">col 0|1</text>
<path d="M909.5,50.0 L909.5,428.0" stroke="rgba(255, 255, 0, 0.5)" stroke-width="1" stroke-dasharray="6,4" />
<text x="909.5" y="46.0" font-size="7" fill="rgba(255, 255, 0, 0.5)" font-family="'Helvetica Neue', Helvetica, Arial, sans-serif" text-anchor="middle">col 1|2</text>
<path d="M1220.0,50.0 L1220.0,428.0" stroke="rgba(255, 255, 0, 0.5)" stroke-width="1" stroke-dasharray="6,4" />
<text x="1220.0" y="46.0" font-size="7" fill="rgba(255, 255, 0, 0.5)" font-family="'Helvetica Neue', Helvetica, Arial, sans-serif" text-anchor="middle">col 2|3</text>
<path d="M1513.5,50.0 L1513.5,428.0" stroke="rgba(255, 255, 0, 0.5)" stroke-width="1" stroke-dasharray="6,4" />
<text x="1513.5" y="46.0" font-size="7" fill="rgba(255, 255, 0, 0.5)" font-family="'Helvetica Neue', Helvetica, Arial, sans-serif" text-anchor="middle">col 3|4</text>
<path d="M10.0,283.0 L1745.5,283.0" stroke="rgba(255, 255, 0, 0.5)" stroke-width="1" stroke-dasharray="6,4" />
<text x="6.0" y="283.0" font-size="7" fill="rgba(255, 255, 0, 0.5)" font-family="'Helvetica Neue', Helvetica, Arial, sans-serif" text-anchor="end">row 0|1</text>
<path d="M20.0,120.0 L1735.5,120.0" stroke="rgba(80, 255, 180, 0.5)" stroke-width="0.75" stroke-dasharray="4,6" />
<text x="16.0" y="120.0" font-size="7" fill="rgba(80, 255, 180, 0.5)" font-family="'Helvetica Neue', Helvetica, Arial, sans-serif" text-anchor="end">row 0 grid</text>
<path d="M20.0,164.0 L1735.5,164.0" stroke="rgba(80, 255, 180, 0.5)" stroke-width="0.75" stroke-dasharray="4,6" />
<path d="M20.0,208.0 L1735.5,208.0" stroke="rgba(80, 255, 180, 0.5)" stroke-width="0.75" stroke-dasharray="4,6" />
<path d="M924.5,358.0 L1205.0,358.0" stroke="rgba(80, 255, 180, 0.5)" stroke-width="0.75" stroke-dasharray="4,6" />
<text x="920.5" y="358.0" font-size="7" fill="rgba(80, 255, 180, 0.5)" font-family="'Helvetica Neue', Helvetica, Arial, sans-serif" text-anchor="end">row 1 grid</text>
<rect x="30.0" y="438.0" width="167.8" height="120.0" rx="6" ry="6" fill="rgba(0, 0, 0, 0.3)" />
<path d="M42.0,462.0 L66.0,462.0" stroke="#2db572" stroke-width="3.0" stroke-linecap="round" />
<text x="78.0" y="462.0" font-size="14.0" fill="#e0e0e0" font-family="'Helvetica Neue', Helvetica, Arial, sans-serif" dy="0.3em">Whole Genome</text>
<path d="M42.0,486.0 L66.0,486.0" stroke="#0570b0" stroke-width="3.0" stroke-linecap="round" />
<text x="78.0" y="486.0" font-size="14.0" fill="#e0e0e0" font-family="'Helvetica Neue', Helvetica, Arial, sans-serif" dy="0.3em">Whole Exome</text>
<path d="M42.0,510.0 L66.0,510.0" stroke="#f5c542" stroke-width="3.0" stroke-linecap="round" />
<text x="78.0" y="510.0" font-size="14.0" fill="#e0e0e0" font-family="'Helvetica Neue', Helvetica, Arial, sans-serif" dy="0.3em">Targeted Panel</text>
<path d="M42.0,534.0 L66.0,534.0" stroke="#e63946" stroke-width="3.0" stroke-linecap="round" />
<text x="78.0" y="534.0" font-size="14.0" fill="#e0e0e0" font-family="'Helvetica Neue', Helvetica, Arial, sans-serif" dy="0.3em">RNA Variants</text>
<text x="1755.0" y="574.0" font-size="8" fill="rgba(150, 150, 150, 0.6)" font-family="'Helvetica Neue', Helvetica, Arial, sans-serif" text-anchor="end">created with nf-metro v0.7.2+dev</text>
</svg>