<?xml version="1.0" encoding="UTF-8"?>
<svg xmlns="http://www.w3.org/2000/svg" xmlns:xlink="http://www.w3.org/1999/xlink"
     width="392" height="504" viewBox="0 0 392 504">
<defs>
</defs>
<rect x="0" y="0" width="392" height="504" fill="#2b2b2b" />
<text x="60.0" y="30.0" font-size="24.0" fill="#ffffff" font-family="'Helvetica Neue', Helvetica, Arial, sans-serif" font-weight="bold" class="nf-metro-title">Inter-row wrap clearance</text>
<rect x="30.0" y="70.0" width="280.0" height="100.0" rx="8" ry="8" fill="#373737" stroke="#595959" stroke-width="1.0" class="nf-metro-section-box" data-section-id="top" data-section-lines="l1,l2,l3" />
<circle cx="41.0" cy="55.0" r="11" fill="#333333" class="nf-metro-section-num-circle" data-section-id="top" />
<text x="41.0" y="55.0" font-size="12" fill="#ffffff" font-family="'Helvetica Neue', Helvetica, Arial, sans-serif" font-weight="bold" text-anchor="middle" dy="0.3em" data-section-id="top">1</text>
<text x="57.0" y="55.0" font-size="16.0" fill="#aaaaaa" font-family="'Helvetica Neue', Helvetica, Arial, sans-serif" font-weight="bold" dy="0.3em" class="nf-metro-section-label" data-section-id="top">Top section</text>
<rect x="30.0" y="254.0" width="220.0" height="100.0" rx="8" ry="8" fill="#373737" stroke="#595959" stroke-width="1.0" class="nf-metro-section-box" data-section-id="bottom" data-section-lines="l1,l2,l3" />
<circle cx="41.0" cy="239.0" r="11" fill="#333333" class="nf-metro-section-num-circle" data-section-id="bottom" />
<text x="41.0" y="239.0" font-size="12" fill="#ffffff" font-family="'Helvetica Neue', Helvetica, Arial, sans-serif" font-weight="bold" text-anchor="middle" dy="0.3em" data-section-id="bottom">2</text>
<text x="57.0" y="239.0" font-size="16.0" fill="#aaaaaa" font-family="'Helvetica Neue', Helvetica, Arial, sans-serif" font-weight="bold" dy="0.3em" class="nf-metro-section-label" data-section-id="bottom">Bottom section</text>
<path d="M80.0,126.0 L140.0,126.0" stroke="#756bb1" stroke-width="3.0" stroke-linecap="round" class="metro-line-l3" data-line-id="l3" />
<path d="M140.0,126.0 L200.0,126.0" stroke="#756bb1" stroke-width="3.0" stroke-linecap="round" class="metro-line-l3" data-line-id="l3" />
<path d="M200.0,126.0 L260.0,126.0" stroke="#756bb1" stroke-width="3.0" stroke-linecap="round" class="metro-line-l3" data-line-id="l3" />
<path d="M80.0,310.0 L140.0,310.0" stroke="#756bb1" stroke-width="3.0" stroke-linecap="round" class="metro-line-l3" data-line-id="l3" />
<path d="M140.0,310.0 L200.0,310.0" stroke="#756bb1" stroke-width="3.0" stroke-linecap="round" class="metro-line-l3" data-line-id="l3" />
<path d="M260.0,126.0 L310.0,126.0" stroke="#756bb1" stroke-width="3.0" stroke-linecap="round" class="metro-line-l3" data-line-id="l3" />
<path d="M30.0,310.0 L80.0,310.0" stroke="#756bb1" stroke-width="3.0" stroke-linecap="round" class="metro-line-l3" data-line-id="l3" />
<path d="M310.0,126.0 L316.0,126.0 Q326.0,126.0,326.0,136.0 L326.0,186.0 Q326.0,196.0,316.0,196.0 L24.0,196.0 Q8.0,196.0,8.0,212.0 L8.0,294.0 Q8.0,310.0,24.0,310.0 L30.0,310.0" stroke="#756bb1" stroke-width="3.0" fill="none" stroke-linecap="round" stroke-linejoin="round" class="metro-line-l3" data-line-id="l3" />
<path d="M80.0,123.0 L140.0,123.0" stroke="#d62728" stroke-width="3.0" stroke-linecap="round" class="metro-line-l2" data-line-id="l2" />
<path d="M140.0,123.0 L200.0,123.0" stroke="#d62728" stroke-width="3.0" stroke-linecap="round" class="metro-line-l2" data-line-id="l2" />
<path d="M200.0,123.0 L260.0,123.0" stroke="#d62728" stroke-width="3.0" stroke-linecap="round" class="metro-line-l2" data-line-id="l2" />
<path d="M80.0,307.0 L140.0,307.0" stroke="#d62728" stroke-width="3.0" stroke-linecap="round" class="metro-line-l2" data-line-id="l2" />
<path d="M140.0,307.0 L200.0,307.0" stroke="#d62728" stroke-width="3.0" stroke-linecap="round" class="metro-line-l2" data-line-id="l2" />
<path d="M260.0,123.0 L310.0,123.0" stroke="#d62728" stroke-width="3.0" stroke-linecap="round" class="metro-line-l2" data-line-id="l2" />
<path d="M30.0,307.0 L80.0,307.0" stroke="#d62728" stroke-width="3.0" stroke-linecap="round" class="metro-line-l2" data-line-id="l2" />
<path d="M310.0,123.0 L316.0,123.0 Q329.0,123.0,329.0,136.0 L329.0,186.0 Q329.0,199.0,316.0,199.0 L24.0,199.0 Q11.0,199.0,11.0,212.0 L11.0,294.0 Q11.0,307.0,24.0,307.0 L30.0,307.0" stroke="#d62728" stroke-width="3.0" fill="none" stroke-linecap="round" stroke-linejoin="round" class="metro-line-l2" data-line-id="l2" />
<path d="M80.0,120.0 L140.0,120.0" stroke="#0570b0" stroke-width="3.0" stroke-linecap="round" class="metro-line-l1" data-line-id="l1" />
<path d="M140.0,120.0 L200.0,120.0" stroke="#0570b0" stroke-width="3.0" stroke-linecap="round" class="metro-line-l1" data-line-id="l1" />
<path d="M200.0,120.0 L260.0,120.0" stroke="#0570b0" stroke-width="3.0" stroke-linecap="round" class="metro-line-l1" data-line-id="l1" />
<path d="M80.0,304.0 L140.0,304.0" stroke="#0570b0" stroke-width="3.0" stroke-linecap="round" class="metro-line-l1" data-line-id="l1" />
<path d="M140.0,304.0 L200.0,304.0" stroke="#0570b0" stroke-width="3.0" stroke-linecap="round" class="metro-line-l1" data-line-id="l1" />
<path d="M260.0,120.0 L310.0,120.0" stroke="#0570b0" stroke-width="3.0" stroke-linecap="round" class="metro-line-l1" data-line-id="l1" />
<path d="M30.0,304.0 L80.0,304.0" stroke="#0570b0" stroke-width="3.0" stroke-linecap="round" class="metro-line-l1" data-line-id="l1" />
<path d="M310.0,120.0 L316.0,120.0 Q332.0,120.0,332.0,136.0 L332.0,186.0 Q332.0,202.0,316.0,202.0 L24.0,202.0 Q14.0,202.0,14.0,212.0 L14.0,294.0 Q14.0,304.0,24.0,304.0 L30.0,304.0" stroke="#0570b0" stroke-width="3.0" fill="none" stroke-linecap="round" stroke-linejoin="round" class="metro-line-l1" data-line-id="l1" />
<rect x="75.0" y="115.0" width="10.0" height="16.0" rx="5.0" ry="5.0" fill="#ffffff" stroke="#333333" stroke-width="1.5" class="nf-metro-station" data-station-id="a_in" data-station-lines="l1,l2,l3" data-station-label="a_in" data-section-id="top" data-section-name="Top section" />
<rect x="135.0" y="115.0" width="10.0" height="16.0" rx="5.0" ry="5.0" fill="#ffffff" stroke="#333333" stroke-width="1.5" class="nf-metro-station" data-station-id="a1" data-station-lines="l1,l2,l3" data-station-label="Step A1" data-section-id="top" data-section-name="Top section" />
<rect x="195.0" y="115.0" width="10.0" height="16.0" rx="5.0" ry="5.0" fill="#ffffff" stroke="#333333" stroke-width="1.5" class="nf-metro-station" data-station-id="a2" data-station-lines="l1,l2,l3" data-station-label="Step A2" data-section-id="top" data-section-name="Top section" />
<rect x="255.0" y="115.0" width="10.0" height="16.0" rx="5.0" ry="5.0" fill="#ffffff" stroke="#333333" stroke-width="1.5" class="nf-metro-station" data-station-id="a3" data-station-lines="l1,l2,l3" data-station-label="Step A3" data-section-id="top" data-section-name="Top section" />
<rect x="75.0" y="299.0" width="10.0" height="16.0" rx="5.0" ry="5.0" fill="#ffffff" stroke="#333333" stroke-width="1.5" class="nf-metro-station" data-station-id="b_in" data-station-lines="l1,l2,l3" data-station-label="b_in" data-section-id="bottom" data-section-name="Bottom section" />
<rect x="135.0" y="299.0" width="10.0" height="16.0" rx="5.0" ry="5.0" fill="#ffffff" stroke="#333333" stroke-width="1.5" class="nf-metro-station" data-station-id="b1" data-station-lines="l1,l2,l3" data-station-label="Step B1" data-section-id="bottom" data-section-name="Bottom section" />
<rect x="195.0" y="299.0" width="10.0" height="16.0" rx="5.0" ry="5.0" fill="#ffffff" stroke="#333333" stroke-width="1.5" class="nf-metro-station" data-station-id="b2" data-station-lines="l1,l2,l3" data-station-label="Step B2" data-section-id="bottom" data-section-name="Bottom section" />
<text x="140.0" y="106.0" font-size="13.0" fill="#e0e0e0" font-family="'Helvetica Neue', Helvetica, Arial, sans-serif" font-weight="bold" text-anchor="middle" dominant-baseline="auto" data-station-id="a1" class="nf-metro-station-label">Step A1</text>
<text x="140.0" y="290.0" font-size="13.0" fill="#e0e0e0" font-family="'Helvetica Neue', Helvetica, Arial, sans-serif" font-weight="bold" text-anchor="middle" dominant-baseline="auto" data-station-id="b1" class="nf-metro-station-label">Step B1</text>
<text x="200.0" y="137.0" font-size="13.0" fill="#e0e0e0" font-family="'Helvetica Neue', Helvetica, Arial, sans-serif" font-weight="bold" text-anchor="middle" dominant-baseline="hanging" data-station-id="a2" class="nf-metro-station-label">Step A2</text>
<text x="200.0" y="321.0" font-size="13.0" fill="#e0e0e0" font-family="'Helvetica Neue', Helvetica, Arial, sans-serif" font-weight="bold" text-anchor="middle" dominant-baseline="hanging" data-station-id="b2" class="nf-metro-station-label">Step B2</text>
<text x="260.0" y="106.0" font-size="13.0" fill="#e0e0e0" font-family="'Helvetica Neue', Helvetica, Arial, sans-serif" font-weight="bold" text-anchor="middle" dominant-baseline="auto" data-station-id="a3" class="nf-metro-station-label">Step A3</text>
<circle cx="332.0" cy="120.0" r="3.0" fill="rgba(255, 200, 50, 0.6)" />
<circle cx="332.0" cy="202.0" r="3.0" fill="rgba(255, 200, 50, 0.6)" />
<circle cx="14.0" cy="202.0" r="3.0" fill="rgba(255, 200, 50, 0.6)" />
<circle cx="14.0" cy="304.0" r="3.0" fill="rgba(255, 200, 50, 0.6)" />
<circle cx="329.0" cy="123.0" r="3.0" fill="rgba(255, 200, 50, 0.6)" />
<circle cx="329.0" cy="199.0" r="3.0" fill="rgba(255, 200, 50, 0.6)" />
<circle cx="11.0" cy="199.0" r="3.0" fill="rgba(255, 200, 50, 0.6)" />
<circle cx="11.0" cy="307.0" r="3.0" fill="rgba(255, 200, 50, 0.6)" />
<circle cx="326.0" cy="126.0" r="3.0" fill="rgba(255, 200, 50, 0.6)" />
<circle cx="326.0" cy="196.0" r="3.0" fill="rgba(255, 200, 50, 0.6)" />
<circle cx="8.0" cy="196.0" r="3.0" fill="rgba(255, 200, 50, 0.6)" />
<circle cx="8.0" cy="310.0" r="3.0" fill="rgba(255, 200, 50, 0.6)" />
<path d="M310.0,115.0 L315.0,120.0 L310.0,125.0 L305.0,120.0 Z" fill="rgba(80, 180, 255, 0.7)" stroke="none" />
<text x="310.0" y="112.0" font-size="7" fill="rgba(80, 180, 255, 0.7)" font-family="'Helvetica Neue', Helvetica, Arial, sans-serif" text-anchor="middle" dominant-baseline="auto">top__exit_right_0 (right)</text>
<path d="M30.0,299.0 L35.0,304.0 L30.0,309.0 L25.0,304.0 Z" fill="rgba(255, 80, 80, 0.7)" stroke="none" />
<text x="30.0" y="296.0" font-size="7" fill="rgba(255, 80, 80, 0.7)" font-family="'Helvetica Neue', Helvetica, Arial, sans-serif" text-anchor="middle" dominant-baseline="auto">bottom__entry_left_1 (left)</text>
<path d="M10.0,212.0 L330.0,212.0" stroke="rgba(255, 255, 0, 0.5)" stroke-width="1" stroke-dasharray="6,4" />
<text x="6.0" y="212.0" font-size="7" fill="rgba(255, 255, 0, 0.5)" font-family="'Helvetica Neue', Helvetica, Arial, sans-serif" text-anchor="end">row 0|1</text>
<path d="M20.0,120.0 L320.0,120.0" stroke="rgba(80, 255, 180, 0.5)" stroke-width="0.75" stroke-dasharray="4,6" />
<text x="16.0" y="120.0" font-size="7" fill="rgba(80, 255, 180, 0.5)" font-family="'Helvetica Neue', Helvetica, Arial, sans-serif" text-anchor="end">row 0 grid</text>
<path d="M20.0,304.0 L260.0,304.0" stroke="rgba(80, 255, 180, 0.5)" stroke-width="0.75" stroke-dasharray="4,6" />
<text x="16.0" y="304.0" font-size="7" fill="rgba(80, 255, 180, 0.5)" font-family="'Helvetica Neue', Helvetica, Arial, sans-serif" text-anchor="end">row 1 grid</text>
<rect x="30.0" y="384.0" width="106.2" height="96.0" rx="6" ry="6" fill="rgba(0, 0, 0, 0.3)" />
<path d="M42.0,408.0 L66.0,408.0" stroke="#0570b0" stroke-width="3.0" stroke-linecap="round" />
<text x="78.0" y="408.0" font-size="14.0" fill="#e0e0e0" font-family="'Helvetica Neue', Helvetica, Arial, sans-serif" dy="0.3em">Line 1</text>
<path d="M42.0,432.0 L66.0,432.0" stroke="#d62728" stroke-width="3.0" stroke-linecap="round" />
<text x="78.0" y="432.0" font-size="14.0" fill="#e0e0e0" font-family="'Helvetica Neue', Helvetica, Arial, sans-serif" dy="0.3em">Line 2</text>
<path d="M42.0,456.0 L66.0,456.0" stroke="#756bb1" stroke-width="3.0" stroke-linecap="round" />
<text x="78.0" y="456.0" font-size="14.0" fill="#e0e0e0" font-family="'Helvetica Neue', Helvetica, Arial, sans-serif" dy="0.3em">Line 3</text>
<text x="362.0" y="496.0" font-size="8" fill="rgba(150, 150, 150, 0.6)" font-family="'Helvetica Neue', Helvetica, Arial, sans-serif" text-anchor="end">created with nf-metro v0.7.2+dev</text>
</svg>