<?xml version="1.0" encoding="UTF-8"?>
<svg xmlns="http://www.w3.org/2000/svg" xmlns:xlink="http://www.w3.org/1999/xlink"
     width="736" height="502" viewBox="0 0 736 502">
<defs>
</defs>
<rect x="0" y="0" width="736" height="502" fill="#2b2b2b" />
<text x="60.0" y="30.0" font-size="24.0" fill="#ffffff" font-family="'Helvetica Neue', Helvetica, Arial, sans-serif" font-weight="bold" class="nf-metro-title">Off-Track Convergence</text>
<rect x="30.0" y="300.40000000000003" width="160.0" height="100.0" rx="8" ry="8" fill="#373737" stroke="#595959" stroke-width="1.0" class="nf-metro-section-box" data-section-id="input" data-section-lines="main" />
<circle cx="41.0" cy="285.40000000000003" r="11" fill="#333333" class="nf-metro-section-num-circle" data-section-id="input" />
<text x="41.0" y="285.40000000000003" font-size="12" fill="#ffffff" font-family="'Helvetica Neue', Helvetica, Arial, sans-serif" font-weight="bold" text-anchor="middle" dy="0.3em" data-section-id="input">1</text>
<text x="57.0" y="285.40000000000003" font-size="16.0" fill="#aaaaaa" font-family="'Helvetica Neue', Helvetica, Arial, sans-serif" font-weight="bold" dy="0.3em" class="nf-metro-section-label" data-section-id="input">Input</text>
<rect x="232.0" y="66.8" width="264.0" height="333.6" rx="8" ry="8" fill="#373737" stroke="#595959" stroke-width="1.0" class="nf-metro-section-box" data-section-id="process" data-section-lines="main" />
<circle cx="243.0" cy="51.8" r="11" fill="#333333" class="nf-metro-section-num-circle" data-section-id="process" />
<text x="243.0" y="51.8" font-size="12" fill="#ffffff" font-family="'Helvetica Neue', Helvetica, Arial, sans-serif" font-weight="bold" text-anchor="middle" dy="0.3em" data-section-id="process">2</text>
<text x="259.0" y="51.8" font-size="16.0" fill="#aaaaaa" font-family="'Helvetica Neue', Helvetica, Arial, sans-serif" font-weight="bold" dy="0.3em" class="nf-metro-section-label" data-section-id="process">Process</text>
<rect x="576.0" y="300.40000000000003" width="100.0" height="100.0" rx="8" ry="8" fill="#373737" stroke="#595959" stroke-width="1.0" class="nf-metro-section-box" data-section-id="output" data-section-lines="main" />
<circle cx="587.0" cy="285.40000000000003" r="11" fill="#333333" class="nf-metro-section-num-circle" data-section-id="output" />
<text x="587.0" y="285.40000000000003" font-size="12" fill="#ffffff" font-family="'Helvetica Neue', Helvetica, Arial, sans-serif" font-weight="bold" text-anchor="middle" dy="0.3em" data-section-id="output">3</text>
<text x="603.0" y="285.40000000000003" font-size="16.0" fill="#aaaaaa" font-family="'Helvetica Neue', Helvetica, Arial, sans-serif" font-weight="bold" dy="0.3em" class="nf-metro-section-label" data-section-id="output">Output</text>
<path d="M80.0,350.40000000000003 L140.0,350.40000000000003" stroke="#2db572" stroke-width="3.0" stroke-linecap="round" class="metro-line-main" data-line-id="main" />
<path d="M290.0,116.80000000000003 L323.5,116.80000000000003 Q333.5,116.80000000000003,334.77378533062273,126.71854177444905 L362.22621466937727,340.481458225551 Q363.5,350.40000000000003,373.5,350.40000000000003 L386.0,350.40000000000003" stroke="#2db572" stroke-width="3.0" fill="none" stroke-linecap="round" stroke-linejoin="round" class="metro-line-main" data-line-id="main" />
<path d="M290.0,175.20000000000005 L323.5,175.20000000000005 Q333.5,175.20000000000005,335.1877643140396,185.0565435939915 L361.8122356859604,340.54345640600854 Q363.5,350.40000000000003,373.5,350.40000000000003 L386.0,350.40000000000003" stroke="#2db572" stroke-width="3.0" fill="none" stroke-linecap="round" stroke-linejoin="round" class="metro-line-main" data-line-id="main" />
<path d="M290.0,233.60000000000002 L323.5,233.60000000000002 Q333.5,233.60000000000002,335.9877435036134,243.28561470740138 L361.0122564963866,340.71438529259865 Q363.5,350.40000000000003,373.5,350.40000000000003 L386.0,350.40000000000003" stroke="#2db572" stroke-width="3.0" fill="none" stroke-linecap="round" stroke-linejoin="round" class="metro-line-main" data-line-id="main" />
<path d="M290.0,292.00000000000006 L323.5,292.00000000000006 Q333.5,292.00000000000006,338.0693498139703,300.8950009711956 L358.9306501860297,341.5049990288045 Q363.5,350.40000000000003,373.5,350.40000000000003 L386.0,350.40000000000003" stroke="#2db572" stroke-width="3.0" fill="none" stroke-linecap="round" stroke-linejoin="round" class="metro-line-main" data-line-id="main" />
<path d="M386.0,350.40000000000003 L446.0,350.40000000000003" stroke="#2db572" stroke-width="3.0" stroke-linecap="round" class="metro-line-main" data-line-id="main" />
<path d="M140.0,350.40000000000003 L190.0,350.40000000000003" stroke="#2db572" stroke-width="3.0" stroke-linecap="round" class="metro-line-main" data-line-id="main" />
<path d="M232.0,350.40000000000003 L386.0,350.40000000000003" stroke="#2db572" stroke-width="3.0" stroke-linecap="round" class="metro-line-main" data-line-id="main" />
<path d="M446.0,350.40000000000003 L496.0,350.40000000000003" stroke="#2db572" stroke-width="3.0" stroke-linecap="round" class="metro-line-main" data-line-id="main" />
<path d="M576.0,350.40000000000003 L626.0,350.40000000000003" stroke="#2db572" stroke-width="3.0" stroke-linecap="round" class="metro-line-main" data-line-id="main" />
<path d="M190.0,350.40000000000003 L232.0,350.40000000000003" stroke="#2db572" stroke-width="3.0" stroke-linecap="round" class="metro-line-main" data-line-id="main" />
<path d="M496.0,350.40000000000003 L576.0,350.40000000000003" stroke="#2db572" stroke-width="3.0" stroke-linecap="round" class="metro-line-main" data-line-id="main" />
<rect x="75.0" y="345.40000000000003" width="10.0" height="10.0" rx="5.0" ry="5.0" fill="#ffffff" stroke="#333333" stroke-width="1.5" class="nf-metro-station" data-station-id="reads" data-station-lines="main" data-station-label="Reads" data-section-id="input" data-section-name="Input" />
<rect x="135.0" y="345.40000000000003" width="10.0" height="10.0" rx="5.0" ry="5.0" fill="#ffffff" stroke="#333333" stroke-width="1.5" class="nf-metro-station" data-station-id="prep" data-station-lines="main" data-station-label="Prepare" data-section-id="input" data-section-name="Input" />
<rect x="285.0" y="111.80000000000003" width="10.0" height="10.0" fill="#ffffff" stroke="#333333" stroke-width="1.5" class="nf-metro-station" data-station-id="ref_in" data-station-lines="main" data-station-label="ref_in" data-section-id="process" data-section-name="Process" />
<g data-station-id="ref_in">
<path d="M253.0,100.80000000000003 L271.0,100.80000000000003 L279.0,108.80000000000003 L279.0,130.8 Q279.0,132.8,277.0,132.8 L253.0,132.8 Q251.0,132.8,251.0,130.8 L251.0,102.80000000000003 Q251.0,100.80000000000003,253.0,100.80000000000003 Z" fill="#ffffff" stroke="#333333" stroke-width="1.5" stroke-linejoin="round" />
<path d="M271.0,100.80000000000003 L271.0,108.80000000000003 L279.0,108.80000000000003 Z" fill="#333333" opacity="0.15" stroke="none" />
<path d="M271.0,100.80000000000003 L271.0,108.80000000000003 L279.0,108.80000000000003" fill="none" stroke="#333333" stroke-width="0.8999999999999999" />
<text x="265.0" y="118.00000000000003" font-size="7.5" fill="#000000" font-family="'Helvetica Neue', Helvetica, Arial, sans-serif" font-weight="bold" text-anchor="middle" dy="0.3em">FASTA</text>
<text x="265.0" y="136.8" font-size="7.8" fill="#e0e0e0" font-family="'Helvetica Neue', Helvetica, Arial, sans-serif" font-weight="bold" text-anchor="middle" dominant-baseline="hanging">Reference</text>
</g>
<rect x="285.0" y="170.20000000000005" width="10.0" height="10.0" fill="#ffffff" stroke="#333333" stroke-width="1.5" class="nf-metro-station" data-station-id="gtf_in" data-station-lines="main" data-station-label="gtf_in" data-section-id="process" data-section-name="Process" />
<g data-station-id="gtf_in">
<path d="M253.0,159.20000000000005 L271.0,159.20000000000005 L279.0,167.20000000000005 L279.0,189.20000000000005 Q279.0,191.20000000000005,277.0,191.20000000000005 L253.0,191.20000000000005 Q251.0,191.20000000000005,251.0,189.20000000000005 L251.0,161.20000000000005 Q251.0,159.20000000000005,253.0,159.20000000000005 Z" fill="#ffffff" stroke="#333333" stroke-width="1.5" stroke-linejoin="round" />
<path d="M271.0,159.20000000000005 L271.0,167.20000000000005 L279.0,167.20000000000005 Z" fill="#333333" opacity="0.15" stroke="none" />
<path d="M271.0,159.20000000000005 L271.0,167.20000000000005 L279.0,167.20000000000005" fill="none" stroke="#333333" stroke-width="0.8999999999999999" />
<text x="265.0" y="176.40000000000003" font-size="7.5" fill="#000000" font-family="'Helvetica Neue', Helvetica, Arial, sans-serif" font-weight="bold" text-anchor="middle" dy="0.3em">GTF</text>
<text x="265.0" y="195.20000000000005" font-size="7.8" fill="#e0e0e0" font-family="'Helvetica Neue', Helvetica, Arial, sans-serif" font-weight="bold" text-anchor="middle" dominant-baseline="hanging">Annotation</text>
</g>
<rect x="285.0" y="228.60000000000002" width="10.0" height="10.0" fill="#ffffff" stroke="#333333" stroke-width="1.5" class="nf-metro-station" data-station-id="vcf_in" data-station-lines="main" data-station-label="vcf_in" data-section-id="process" data-section-name="Process" />
<g data-station-id="vcf_in">
<path d="M253.0,217.60000000000002 L271.0,217.60000000000002 L279.0,225.60000000000002 L279.0,247.60000000000002 Q279.0,249.60000000000002,277.0,249.60000000000002 L253.0,249.60000000000002 Q251.0,249.60000000000002,251.0,247.60000000000002 L251.0,219.60000000000002 Q251.0,217.60000000000002,253.0,217.60000000000002 Z" fill="#ffffff" stroke="#333333" stroke-width="1.5" stroke-linejoin="round" />
<path d="M271.0,217.60000000000002 L271.0,225.60000000000002 L279.0,225.60000000000002 Z" fill="#333333" opacity="0.15" stroke="none" />
<path d="M271.0,217.60000000000002 L271.0,225.60000000000002 L279.0,225.60000000000002" fill="none" stroke="#333333" stroke-width="0.8999999999999999" />
<text x="265.0" y="234.8" font-size="7.5" fill="#000000" font-family="'Helvetica Neue', Helvetica, Arial, sans-serif" font-weight="bold" text-anchor="middle" dy="0.3em">VCF</text>
<text x="265.0" y="253.60000000000002" font-size="7.8" fill="#e0e0e0" font-family="'Helvetica Neue', Helvetica, Arial, sans-serif" font-weight="bold" text-anchor="middle" dominant-baseline="hanging">Known Variants</text>
</g>
<rect x="285.0" y="287.00000000000006" width="10.0" height="10.0" fill="#ffffff" stroke="#333333" stroke-width="1.5" class="nf-metro-station" data-station-id="bed_in" data-station-lines="main" data-station-label="bed_in" data-section-id="process" data-section-name="Process" />
<g data-station-id="bed_in">
<path d="M253.0,276.00000000000006 L271.0,276.00000000000006 L279.0,284.00000000000006 L279.0,306.00000000000006 Q279.0,308.00000000000006,277.0,308.00000000000006 L253.0,308.00000000000006 Q251.0,308.00000000000006,251.0,306.00000000000006 L251.0,278.00000000000006 Q251.0,276.00000000000006,253.0,276.00000000000006 Z" fill="#ffffff" stroke="#333333" stroke-width="1.5" stroke-linejoin="round" />
<path d="M271.0,276.00000000000006 L271.0,284.00000000000006 L279.0,284.00000000000006 Z" fill="#333333" opacity="0.15" stroke="none" />
<path d="M271.0,276.00000000000006 L271.0,284.00000000000006 L279.0,284.00000000000006" fill="none" stroke="#333333" stroke-width="0.8999999999999999" />
<text x="265.0" y="293.20000000000005" font-size="7.5" fill="#000000" font-family="'Helvetica Neue', Helvetica, Arial, sans-serif" font-weight="bold" text-anchor="middle" dy="0.3em">BED</text>
<text x="265.0" y="312.00000000000006" font-size="7.8" fill="#e0e0e0" font-family="'Helvetica Neue', Helvetica, Arial, sans-serif" font-weight="bold" text-anchor="middle" dominant-baseline="hanging">Targets</text>
</g>
<rect x="381.0" y="345.40000000000003" width="10.0" height="10.0" rx="5.0" ry="5.0" fill="#ffffff" stroke="#333333" stroke-width="1.5" class="nf-metro-station" data-station-id="align" data-station-lines="main" data-station-label="Align" data-section-id="process" data-section-name="Process" />
<rect x="441.0" y="345.40000000000003" width="10.0" height="10.0" rx="5.0" ry="5.0" fill="#ffffff" stroke="#333333" stroke-width="1.5" class="nf-metro-station" data-station-id="annotate" data-station-lines="main" data-station-label="Annotate" data-section-id="process" data-section-name="Process" />
<rect x="621.0" y="345.40000000000003" width="10.0" height="10.0" rx="5.0" ry="5.0" fill="#ffffff" stroke="#333333" stroke-width="1.5" class="nf-metro-station" data-station-id="report" data-station-lines="main" data-station-label="Report" data-section-id="output" data-section-name="Output" />
<text x="80.0" y="361.40000000000003" font-size="13.0" fill="#e0e0e0" font-family="'Helvetica Neue', Helvetica, Arial, sans-serif" font-weight="bold" text-anchor="middle" dominant-baseline="hanging" data-station-id="reads" class="nf-metro-station-label">Reads</text>
<text x="626.0" y="361.40000000000003" font-size="13.0" fill="#e0e0e0" font-family="'Helvetica Neue', Helvetica, Arial, sans-serif" font-weight="bold" text-anchor="middle" dominant-baseline="hanging" data-station-id="report" class="nf-metro-station-label">Report</text>
<text x="140.0" y="336.40000000000003" font-size="13.0" fill="#e0e0e0" font-family="'Helvetica Neue', Helvetica, Arial, sans-serif" font-weight="bold" text-anchor="middle" dominant-baseline="auto" data-station-id="prep" class="nf-metro-station-label">Prepare</text>
<text x="386.0" y="336.40000000000003" font-size="13.0" fill="#e0e0e0" font-family="'Helvetica Neue', Helvetica, Arial, sans-serif" font-weight="bold" text-anchor="middle" dominant-baseline="auto" data-station-id="align" class="nf-metro-station-label">Align</text>
<text x="446.0" y="361.40000000000003" font-size="13.0" fill="#e0e0e0" font-family="'Helvetica Neue', Helvetica, Arial, sans-serif" font-weight="bold" text-anchor="middle" dominant-baseline="hanging" data-station-id="annotate" class="nf-metro-station-label">Annotate</text>
<circle cx="333.5" cy="116.80000000000003" r="3.0" fill="rgba(255, 200, 50, 0.6)" />
<circle cx="363.5" cy="350.40000000000003" r="3.0" fill="rgba(255, 200, 50, 0.6)" />
<circle cx="333.5" cy="175.20000000000005" r="3.0" fill="rgba(255, 200, 50, 0.6)" />
<circle cx="363.5" cy="350.40000000000003" r="3.0" fill="rgba(255, 200, 50, 0.6)" />
<circle cx="333.5" cy="233.60000000000002" r="3.0" fill="rgba(255, 200, 50, 0.6)" />
<circle cx="363.5" cy="350.40000000000003" r="3.0" fill="rgba(255, 200, 50, 0.6)" />
<circle cx="333.5" cy="292.00000000000006" r="3.0" fill="rgba(255, 200, 50, 0.6)" />
<circle cx="363.5" cy="350.40000000000003" r="3.0" fill="rgba(255, 200, 50, 0.6)" />
<path d="M190.0,345.40000000000003 L195.0,350.40000000000003 L190.0,355.40000000000003 L185.0,350.40000000000003 Z" fill="rgba(80, 180, 255, 0.7)" stroke="none" />
<text x="190.0" y="342.40000000000003" font-size="7" fill="rgba(80, 180, 255, 0.7)" font-family="'Helvetica Neue', Helvetica, Arial, sans-serif" text-anchor="middle" dominant-baseline="auto">input__exit_right_0 (right)</text>
<path d="M496.0,345.40000000000003 L501.0,350.40000000000003 L496.0,355.40000000000003 L491.0,350.40000000000003 Z" fill="rgba(80, 180, 255, 0.7)" stroke="none" />
<text x="496.0" y="342.40000000000003" font-size="7" fill="rgba(80, 180, 255, 0.7)" font-family="'Helvetica Neue', Helvetica, Arial, sans-serif" text-anchor="middle" dominant-baseline="auto">process__exit_right_1 (right)</text>
<path d="M232.0,345.40000000000003 L237.0,350.40000000000003 L232.0,355.40000000000003 L227.0,350.40000000000003 Z" fill="rgba(255, 80, 80, 0.7)" stroke="none" />
<text x="232.0" y="342.40000000000003" font-size="7" fill="rgba(255, 80, 80, 0.7)" font-family="'Helvetica Neue', Helvetica, Arial, sans-serif" text-anchor="middle" dominant-baseline="auto">process__entry_left_2 (left)</text>
<path d="M576.0,345.40000000000003 L581.0,350.40000000000003 L576.0,355.40000000000003 L571.0,350.40000000000003 Z" fill="rgba(255, 80, 80, 0.7)" stroke="none" />
<text x="576.0" y="342.40000000000003" font-size="7" fill="rgba(255, 80, 80, 0.7)" font-family="'Helvetica Neue', Helvetica, Arial, sans-serif" text-anchor="middle" dominant-baseline="auto">output__entry_left_3 (left)</text>
<path d="M211.0,46.8 L211.0,420.40000000000003" stroke="rgba(255, 255, 0, 0.5)" stroke-width="1" stroke-dasharray="6,4" />
<text x="211.0" y="42.8" font-size="7" fill="rgba(255, 255, 0, 0.5)" font-family="'Helvetica Neue', Helvetica, Arial, sans-serif" text-anchor="middle">col 0|1</text>
<path d="M536.0,46.8 L536.0,420.40000000000003" stroke="rgba(255, 255, 0, 0.5)" stroke-width="1" stroke-dasharray="6,4" />
<text x="536.0" y="42.8" font-size="7" fill="rgba(255, 255, 0, 0.5)" font-family="'Helvetica Neue', Helvetica, Arial, sans-serif" text-anchor="middle">col 1|2</text>
<path d="M20.0,350.40000000000003 L200.0,350.40000000000003" stroke="rgba(80, 255, 180, 0.5)" stroke-width="0.75" stroke-dasharray="4,6" />
<text x="16.0" y="350.40000000000003" font-size="7" fill="rgba(80, 255, 180, 0.5)" font-family="'Helvetica Neue', Helvetica, Arial, sans-serif" text-anchor="end">row 0 grid</text>
<path d="M222.0,116.80000000000003 L506.0,116.80000000000003" stroke="rgba(80, 255, 180, 0.5)" stroke-width="0.75" stroke-dasharray="4,6" />
<text x="218.0" y="116.80000000000003" font-size="7" fill="rgba(80, 255, 180, 0.5)" font-family="'Helvetica Neue', Helvetica, Arial, sans-serif" text-anchor="end">row 0 grid</text>
<path d="M222.0,156.8 L506.0,156.8" stroke="rgba(80, 255, 180, 0.5)" stroke-width="0.75" stroke-dasharray="4,6" />
<path d="M222.0,196.8 L506.0,196.8" stroke="rgba(80, 255, 180, 0.5)" stroke-width="0.75" stroke-dasharray="4,6" />
<path d="M222.0,236.8 L506.0,236.8" stroke="rgba(80, 255, 180, 0.5)" stroke-width="0.75" stroke-dasharray="4,6" />
<path d="M222.0,276.8 L506.0,276.8" stroke="rgba(80, 255, 180, 0.5)" stroke-width="0.75" stroke-dasharray="4,6" />
<path d="M222.0,316.8 L506.0,316.8" stroke="rgba(80, 255, 180, 0.5)" stroke-width="0.75" stroke-dasharray="4,6" />
<path d="M222.0,356.8 L506.0,356.8" stroke="rgba(80, 255, 180, 0.5)" stroke-width="0.75" stroke-dasharray="4,6" />
<path d="M566.0,350.40000000000003 L686.0,350.40000000000003" stroke="rgba(80, 255, 180, 0.5)" stroke-width="0.75" stroke-dasharray="4,6" />
<text x="562.0" y="350.40000000000003" font-size="7" fill="rgba(80, 255, 180, 0.5)" font-family="'Helvetica Neue', Helvetica, Arial, sans-serif" text-anchor="end">row 0 grid</text>
<rect x="30.0" y="430.40000000000003" width="90.80000000000001" height="48.0" rx="6" ry="6" fill="rgba(0, 0, 0, 0.3)" />
<path d="M42.0,454.40000000000003 L66.0,454.40000000000003" stroke="#2db572" stroke-width="3.0" stroke-linecap="round" />
<text x="78.0" y="454.40000000000003" font-size="14.0" fill="#e0e0e0" font-family="'Helvetica Neue', Helvetica, Arial, sans-serif" dy="0.3em">Main</text>
<text x="706.0" y="494.0" font-size="8" fill="rgba(150, 150, 150, 0.6)" font-family="'Helvetica Neue', Helvetica, Arial, sans-serif" text-anchor="end">created with nf-metro v0.7.2+dev</text>
</svg>